<svg width="78" height="78" viewBox="0 0 78 78" fill="none" xmlns="http://www.w3.org/2000/svg">
<rect width="78" height="78" rx="39" fill="#F4E4FF"/>
<path fill-rule="evenodd" clip-rule="evenodd" d="M37.592 24.6666H40.408C42.8587 24.6666 44.8 24.6666 46.3187 24.8706C47.8813 25.0813 49.1467 25.524 50.1453 26.5213C51.1427 27.52 51.5853 28.7853 51.796 30.348C52 31.868 52 33.808 52 36.2586V41.7413C52 44.192 52 46.1333 51.796 47.652C51.5853 49.2146 51.1427 50.48 50.1453 51.4786C49.1467 52.476 47.8813 52.9186 46.3187 53.1293C44.7987 53.3333 42.8587 53.3333 40.408 53.3333H37.592C35.1413 53.3333 33.2 53.3333 31.6813 53.1293C30.1187 52.9186 28.8533 52.476 27.8547 51.4786C26.8573 50.48 26.4147 49.2146 26.204 47.652C26 46.132 26 44.192 26 41.7413V36.2586C26 33.808 26 31.8666 26.204 30.348C26.4147 28.7853 26.8573 27.52 27.8547 26.5213C28.8533 25.524 30.1187 25.0813 31.6813 24.8706C33.2013 24.6666 35.1413 24.6666 37.592 24.6666ZM31.9467 26.8533C30.6053 27.0333 29.832 27.372 29.2667 27.936C28.704 28.5 28.3653 29.2733 28.1853 30.6146C28.0013 31.9853 27.9987 33.7906 27.9987 36.3333V41.6666C27.9987 44.2093 28.0013 46.016 28.1853 47.3866C28.3653 48.7266 28.704 49.5 29.268 50.064C29.832 50.628 30.6053 50.9666 31.9467 51.1466C33.3173 51.3306 35.1227 51.3333 37.6653 51.3333H40.332C42.8747 51.3333 44.6813 51.3306 46.052 51.1466C47.392 50.9666 48.1653 50.628 48.7293 50.064C49.2933 49.5 49.632 48.7266 49.812 47.3853C49.996 46.016 49.9987 44.2093 49.9987 41.6666V36.3333C49.9987 33.7906 49.996 31.9853 49.812 30.6133C49.632 29.2733 49.2933 28.5 48.7293 27.936C48.1653 27.372 47.392 27.0333 46.0507 26.8533C44.6813 26.6693 42.8747 26.6666 40.332 26.6666H37.6653C35.1227 26.6666 33.3187 26.6693 31.9467 26.8533ZM32.6667 36.3333C32.6667 36.0681 32.772 35.8137 32.9596 35.6262C33.1471 35.4387 33.4015 35.3333 33.6667 35.3333H44.3333C44.5986 35.3333 44.8529 35.4387 45.0404 35.6262C45.228 35.8137 45.3333 36.0681 45.3333 36.3333C45.3333 36.5985 45.228 36.8529 45.0404 37.0404C44.8529 37.2279 44.5986 37.3333 44.3333 37.3333H33.6667C33.4015 37.3333 33.1471 37.2279 32.9596 37.0404C32.772 36.8529 32.6667 36.5985 32.6667 36.3333ZM32.6667 41.6666C32.6667 41.4014 32.772 41.1471 32.9596 40.9595C33.1471 40.772 33.4015 40.6666 33.6667 40.6666H40.3333C40.5985 40.6666 40.8529 40.772 41.0404 40.9595C41.228 41.1471 41.3333 41.4014 41.3333 41.6666C41.3333 41.9318 41.228 42.1862 41.0404 42.3737C40.8529 42.5613 40.5985 42.6666 40.3333 42.6666H33.6667C33.4015 42.6666 33.1471 42.5613 32.9596 42.3737C32.772 42.1862 32.6667 41.9318 32.6667 41.6666Z" fill="#6A0DAD"/>
</svg>
