<svg width="78" height="78" viewBox="0 0 78 78" fill="none" xmlns="http://www.w3.org/2000/svg">
<rect width="78" height="78" rx="39" fill="#E5FFE0"/>
<path d="M32.334 34.3334L36.2567 36.6534C38.5433 38.0054 39.4567 38.0054 41.7447 36.6534L45.6673 34.3334" stroke="#208C0D" stroke-width="2" stroke-linecap="round" stroke-linejoin="round"/>
<path d="M25.6884 40.968C25.7751 45.0547 25.8191 47.0987 27.3271 48.612C28.8351 50.1267 30.9337 50.1787 35.1324 50.284C37.7191 50.3507 40.2817 50.3507 42.8684 50.284C47.0671 50.1787 49.1657 50.1267 50.6737 48.612C52.1817 47.0987 52.2257 45.0547 52.3137 40.968C52.3404 39.6534 52.3404 38.3467 52.3137 37.032C52.2257 32.9454 52.1817 30.9014 50.6737 29.388C49.1657 27.8734 47.0671 27.8214 42.8684 27.716C40.2901 27.651 37.7107 27.651 35.1324 27.716C30.9337 27.8214 28.8351 27.8734 27.3271 29.388C25.8191 30.9014 25.7751 32.9454 25.6871 37.032C25.659 38.3439 25.6603 39.6562 25.6884 40.968Z" stroke="#208C0D" stroke-width="2" stroke-linecap="round" stroke-linejoin="round"/>
</svg>
