<svg width="78" height="78" viewBox="0 0 78 78" fill="none" xmlns="http://www.w3.org/2000/svg">
<rect width="78" height="78" rx="39" fill="#E5FFE0"/>
<path d="M47.666 31H48.3327C50.218 31 51.1607 31 51.746 31.5867C52.3327 32.1707 52.3327 33.1133 52.3327 35V44.3333C52.3327 46.2187 52.3327 47.1613 51.746 47.7467C51.1607 48.3333 50.218 48.3333 48.3327 48.3333H47.666M30.3327 31H29.666C27.7807 31 26.838 31 26.2527 31.5867C25.666 32.1707 25.666 33.1133 25.666 35V44.3333C25.666 46.2187 25.666 47.1613 26.2527 47.7467C26.8367 48.3333 27.7793 48.3333 29.666 48.3333H30.3327M42.3327 33.6667H35.666M42.3327 39H35.666M42.3327 44.3333H35.666M47.666 45.6667V32.3333C47.666 29.8187 47.666 28.5627 46.8847 27.7813C46.1033 27 44.8473 27 42.3327 27H35.666C33.1513 27 31.8953 27 31.114 27.7813C30.3327 28.5627 30.3327 29.8187 30.3327 32.3333V45.6667C30.3327 48.1813 30.3327 49.4373 31.114 50.2187C31.8953 51 33.1513 51 35.666 51H42.3327C44.8473 51 46.1033 51 46.8847 50.2187C47.666 49.4373 47.666 48.1813 47.666 45.6667Z" stroke="#208C0D" stroke-width="2" stroke-linecap="round" stroke-linejoin="round"/>
</svg>
