<svg width="78" height="78" viewBox="0 0 78 78" fill="none" xmlns="http://www.w3.org/2000/svg">
<rect width="78" height="78" rx="39" fill="#E5FFE0"/>
<path fill-rule="evenodd" clip-rule="evenodd" d="M33 29C32.4746 28.9999 31.9543 29.1032 31.4689 29.3042C30.9834 29.5051 30.5422 29.7997 30.1706 30.1712C29.799 30.5426 29.5042 30.9836 29.303 31.469C29.1018 31.9543 28.9982 32.4746 28.998 33C28.9979 33.5254 29.1013 34.0457 29.3022 34.5312C29.5032 35.0167 29.7978 35.4578 30.1692 35.8294C30.5406 36.201 30.9816 36.4959 31.467 36.6971C31.9524 36.8983 32.4726 37.0019 32.998 37.002C34.0592 37.0023 35.077 36.581 35.8275 35.8308C36.578 35.0807 36.9998 34.0631 37 33.002C37.0003 31.9409 36.579 30.9231 35.8289 30.1726C35.0787 29.4221 34.0612 29.0003 33 29ZM31 33C31 32.4696 31.2108 31.9609 31.5858 31.5858C31.9609 31.2107 32.4696 31 33 31C33.5305 31 34.0392 31.2107 34.4143 31.5858C34.7893 31.9609 35 32.4696 35 33C35 33.5304 34.7893 34.0391 34.4143 34.4142C34.0392 34.7893 33.5305 35 33 35C32.4696 35 31.9609 34.7893 31.5858 34.4142C31.2108 34.0391 31 33.5304 31 33Z" fill="#208C0D"/>
<path fill-rule="evenodd" clip-rule="evenodd" d="M30 25C28.6739 25 27.4021 25.5268 26.4645 26.4645C25.5268 27.4021 25 28.6739 25 30V48C25 49.3261 25.5268 50.5979 26.4645 51.5355C27.4021 52.4732 28.6739 53 30 53H48C49.3261 53 50.5979 52.4732 51.5355 51.5355C52.4732 50.5979 53 49.3261 53 48V30C53 28.6739 52.4732 27.4021 51.5355 26.4645C50.5979 25.5268 49.3261 25 48 25H30ZM51 30V43.58L44.7 37.28C44.5125 37.0925 44.2582 36.9872 43.993 36.9872C43.7278 36.9872 43.4735 37.0925 43.286 37.28L29.606 50.96C28.8822 50.8654 28.2174 50.511 27.7354 49.9628C27.2535 49.4146 26.9871 48.71 26.986 47.98V29.98C26.986 29.1844 27.3021 28.4213 27.8647 27.8587C28.4273 27.2961 29.1904 26.98 29.986 26.98H47.986C48.7816 26.98 49.5447 27.2961 50.1073 27.8587C50.6699 28.4213 50.986 29.1844 50.986 29.98L51 30ZM48 51H32.42L44 39.42L51 46.42V48.006C51 48.8016 50.6839 49.5647 50.1213 50.1273C49.5587 50.6899 48.7956 51.006 48 51.006V51Z" fill="#208C0D"/>
</svg>
