<svg width="78" height="78" viewBox="0 0 78 78" fill="none" xmlns="http://www.w3.org/2000/svg">
<rect width="78" height="78" rx="39" fill="#F4E4FF"/>
<path d="M30.5256 27.336C30.5988 27.1778 30.6183 27 30.5811 26.8297C30.544 26.6594 30.4522 26.5059 30.3199 26.3926C30.1875 26.2792 30.0217 26.2122 29.8477 26.2016C29.6737 26.1911 29.5011 26.2377 29.356 26.3344L29.3528 26.336L29.348 26.3392L29.3336 26.3488L29.2856 26.3808L29.1224 26.5008C28.9414 26.6379 28.7653 26.7815 28.5944 26.9312C28.1912 27.2832 27.6712 27.8064 27.3016 28.4304C26.9786 28.9475 26.7196 29.5019 26.5304 30.0816C26.3384 30.656 26.1992 31.2784 26.1992 31.8C26.1992 33.1648 26.7048 34.328 27.4936 35.0416L27.3912 35.16C26.9432 35.7104 26.6824 36.424 26.5192 37.128C26.1992 38.52 26.1992 40.1936 26.1992 41.36V41.4C26.1992 45.8592 26.8056 48.3888 27.4728 49.8352C27.8088 50.5632 28.1656 51.0272 28.4744 51.3184C28.6296 51.4656 28.7704 51.5664 28.8872 51.6352C28.9554 51.6761 29.0265 51.712 29.1 51.7424C29.1 51.7424 29.2808 51.8 29.3992 51.8C29.5176 51.8 29.6984 51.7424 29.6984 51.7424C29.7719 51.712 29.843 51.6761 29.9112 51.6352C30.0599 51.5448 30.1983 51.4386 30.324 51.3184C30.6328 51.0256 30.9896 50.5632 31.3256 49.8352C31.9928 48.3888 32.5992 45.8592 32.5992 41.4V41.36C32.5992 40.192 32.5992 38.52 32.2792 37.128C32.116 36.424 31.8552 35.7104 31.4072 35.16L31.3048 35.0416C32.0936 34.328 32.5992 33.1648 32.5992 31.8C32.5992 30.6848 32.3736 29.9184 31.9656 29.3056C31.7841 29.0424 31.5749 28.7994 31.3416 28.5808L31.0696 28.3248C30.972 28.2336 30.8824 28.1504 30.7656 28.0336C30.5256 27.7936 30.4984 27.6016 30.4984 27.5008C30.4978 27.4447 30.507 27.3889 30.5256 27.336ZM30.9992 31.8C30.9992 33.512 30.0168 34.1984 29.4024 34.2H29.3992C28.7832 34.2 27.7992 33.5152 27.7992 31.8C27.7992 31.5232 27.8824 31.0848 28.0488 30.5888C28.2001 30.1204 28.4092 29.6726 28.6712 29.256C28.8104 29.0208 28.9912 28.792 29.1864 28.5824C29.2952 28.7786 29.4446 28.9733 29.6344 29.1664C29.7512 29.2832 29.9032 29.424 30.0328 29.5456L30.2312 29.7312C30.3992 29.8944 30.5288 30.0368 30.6328 30.1952C30.8248 30.4816 30.9992 30.9152 30.9992 31.8ZM28.0792 37.488C28.2168 36.8896 28.4056 36.448 28.6312 36.1712C28.719 36.0518 28.8345 35.9557 28.9677 35.891C29.101 35.8263 29.248 35.7951 29.396 35.8H29.3992C29.7352 35.8 29.9656 35.9248 30.1672 36.1712C30.3928 36.448 30.5832 36.8896 30.7192 37.488C30.996 38.6848 30.9992 40.1888 30.9992 41.4C30.9992 45.7408 30.4056 48.0112 29.8728 49.1648C29.6968 49.544 29.532 49.7968 29.3992 49.9648C29.2095 49.7183 29.0505 49.4496 28.9256 49.1648C28.3928 48.0112 27.7992 45.7408 27.7992 41.4C27.7992 40.1888 27.8024 38.6848 28.0792 37.488ZM37.3992 43.8C36.2552 43.8 35.1656 43.56 34.1832 43.128C34.2046 42.5584 34.2152 41.9664 34.2152 41.352C35.1844 41.9077 36.2821 42.2 37.3992 42.2V39C37.3992 38.1513 37.7364 37.3373 38.3365 36.7372C38.9366 36.1371 39.7505 35.8 40.5992 35.8H43.7992C43.7994 34.6635 43.4969 33.5475 42.9229 32.5667C42.349 31.5858 41.5242 30.7755 40.5333 30.219C39.5425 29.6625 38.4213 29.3798 37.285 29.4001C36.1488 29.4204 35.0384 29.7428 34.068 30.3344C33.9683 29.7975 33.7858 29.2793 33.5272 28.7984C34.7452 28.1247 36.118 27.7804 37.5098 27.7997C38.9015 27.8189 40.2642 28.2009 41.4632 28.908C42.6621 29.6151 43.6558 30.6228 44.3461 31.8315C45.0364 33.0402 45.3994 34.408 45.3992 35.8H48.5992C49.4479 35.8 50.2618 36.1371 50.862 36.7372C51.4621 37.3373 51.7992 38.1513 51.7992 39V47C51.7992 47.8487 51.4621 48.6626 50.862 49.2627C50.2618 49.8628 49.4479 50.2 48.5992 50.2H40.5992C39.7505 50.2 38.9366 49.8628 38.3365 49.2627C37.7364 48.6626 37.3992 47.8487 37.3992 47V43.8ZM45.2392 37.4C44.9237 38.9365 44.1644 40.3468 43.0552 41.4559C41.946 42.5651 40.5358 43.3245 38.9992 43.64V47C38.9992 47.4243 39.1678 47.8313 39.4678 48.1313C39.7679 48.4314 40.1749 48.6 40.5992 48.6H48.5992C49.0236 48.6 49.4305 48.4314 49.7306 48.1313C50.0306 47.8313 50.1992 47.4243 50.1992 47V39C50.1992 38.5756 50.0306 38.1687 49.7306 37.8686C49.4305 37.5685 49.0236 37.4 48.5992 37.4H45.2392ZM43.5976 37.4H40.5992C40.1749 37.4 39.7679 37.5685 39.4678 37.8686C39.1678 38.1687 38.9992 38.5756 38.9992 39V41.9984C40.1059 41.7111 41.1157 41.1334 41.9242 40.3249C42.7326 39.5165 43.3104 38.5066 43.5976 37.4Z" fill="#6A0DAD"/>
</svg>
