<svg width="78" height="78" viewBox="0 0 78 78" fill="none" xmlns="http://www.w3.org/2000/svg">
<rect width="78" height="78" rx="39" fill="#F4E4FF"/>
<path d="M31.8207 51C31.2065 51 30.694 50.7947 30.2833 50.384C29.8727 49.9733 29.6669 49.4609 29.666 48.8467V29.1533C29.666 28.54 29.8718 28.028 30.2833 27.6173C30.6949 27.2067 31.2073 27.0009 31.8207 27H46.1793C46.7927 27 47.3051 27.2058 47.7167 27.6173C48.1282 28.0289 48.3336 28.5413 48.3327 29.1547V48.8467C48.3327 49.46 48.1273 49.9724 47.7167 50.384C47.306 50.7956 46.7931 51.0009 46.178 51H31.8207ZM31.8207 49.6667H46.1793C46.3838 49.6667 46.5718 49.5813 46.7434 49.4107C46.9149 49.24 47.0002 49.0516 46.9993 48.8453V29.1547C46.9993 28.9493 46.914 28.7609 46.7434 28.5893C46.5727 28.4178 46.3842 28.3324 46.178 28.3333H31.8207C31.6153 28.3333 31.4269 28.4187 31.2553 28.5893C31.0838 28.76 30.9985 28.948 30.9993 29.1533V48.8467C30.9993 49.0511 31.0847 49.2391 31.2553 49.4107C31.426 49.5822 31.614 49.6676 31.8193 49.6667M37.9487 45.564L36.2607 43.564C36.1451 43.4378 36.006 43.3747 35.8433 43.3747C35.6807 43.3747 35.5411 43.4462 35.4247 43.5893L33.9873 45.472C33.8433 45.6604 33.8198 45.8511 33.9167 46.044C34.0136 46.2369 34.1718 46.3333 34.3913 46.3333H43.8127C44.0331 46.3333 44.1913 46.2369 44.2873 46.044C44.3842 45.8502 44.3696 45.6591 44.2433 45.4707L41.6514 42.008C41.5349 41.864 41.3913 41.792 41.2207 41.792C41.0491 41.792 40.9051 41.864 40.7887 42.008L37.9487 45.564Z" fill="#6A0DAD"/>
</svg>
