<svg width="78" height="78" viewBox="0 0 78 78" fill="none" xmlns="http://www.w3.org/2000/svg">
<rect width="78" height="78" rx="39" fill="#F4E4FF"/>
<path d="M52.4166 37.5899L40.4091 25.5824C40.0344 25.2099 39.5275 25.0009 38.9991 25.0009C38.4707 25.0009 37.9638 25.2099 37.5891 25.5824L25.5816 37.5899C25.2091 37.9647 25 38.4716 25 38.9999C25 39.5283 25.2091 40.0352 25.5816 40.4099L37.5891 52.4174C37.9638 52.7899 38.4707 52.999 38.9991 52.999C39.5275 52.999 40.0344 52.7899 40.4091 52.4174L52.4166 40.4099C52.7891 40.0352 52.9982 39.5283 52.9982 38.9999C52.9982 38.4716 52.7891 37.9647 52.4166 37.5899ZM38.9991 26.9999L45.9991 33.9999H42.9991C42.8677 33.9998 42.7376 34.0256 42.6162 34.0758C42.4948 34.126 42.3845 34.1996 42.2916 34.2924L38.9991 37.5849L35.7066 34.2924C35.6136 34.1996 35.5033 34.126 35.3819 34.0758C35.2605 34.0256 35.1304 33.9998 34.9991 33.9999H31.9991L38.9991 26.9999ZM29.9991 35.9999H34.5841L37.5841 38.9999L34.5841 41.9999H29.9991L26.9991 38.9999L29.9991 35.9999ZM38.9991 50.9999L31.9991 43.9999H34.9991C35.1304 44 35.2605 43.9743 35.3819 43.9241C35.5033 43.8739 35.6136 43.8003 35.7066 43.7074L38.9991 40.4137L42.2916 43.7074C42.3845 43.8003 42.4948 43.8739 42.6162 43.9241C42.7376 43.9743 42.8677 44 42.9991 43.9999H45.9991L38.9991 50.9999ZM47.9991 41.9999H43.4141L40.4141 38.9999L43.4141 35.9999H47.9991L50.9991 38.9999L47.9991 41.9999Z" fill="#6A0DAD"/>
</svg>
