<svg width="78" height="78" viewBox="0 0 78 78" fill="none" xmlns="http://www.w3.org/2000/svg">
<rect width="78" height="78" rx="39" fill="#F4E4FF"/>
<path d="M34.5 29C33.5729 29.0037 32.6848 29.3736 32.0292 30.0292C31.3736 30.6848 31.0037 31.5729 31 32.5C31 34.422 32.578 36 34.5 36C36.422 36 38 34.422 38 32.5C38 30.578 36.422 29 34.5 29ZM43.5 29C42.5729 29.0037 41.6848 29.3736 41.0292 30.0292C40.3736 30.6848 40.0037 31.5729 40 32.5C40 34.422 41.578 36 43.5 36C45.422 36 47 34.422 47 32.5C47 30.578 45.422 29 43.5 29ZM34.5 31C35.34 31 36 31.66 36 32.5C36 33.34 35.34 34 34.5 34C33.66 34 33 33.34 33 32.5C33 31.66 33.66 31 34.5 31ZM43.5 31C44.34 31 45 31.66 45 32.5C45 33.34 44.34 34 43.5 34C42.66 34 42 33.34 42 32.5C42 31.66 42.66 31 43.5 31ZM30 35C27.8 35 26 36.8 26 39C26 40.113 26.477 41.117 27.219 41.844C26.5386 42.3036 25.9807 42.9224 25.594 43.6468C25.2073 44.3711 25.0034 45.1789 25 46H27C27 44.332 28.332 43 30 43C31.668 43 33 44.332 33 46H35C34.9966 45.1789 34.7927 44.3711 34.406 43.6468C34.0193 42.9224 33.4614 42.3036 32.781 41.844C33.523 41.117 34 40.114 34 39C34 36.8 32.2 35 30 35ZM35 46C34.375 46.836 34 47.887 34 49H36C36 47.332 37.332 46 39 46C40.668 46 42 47.332 42 49H44C43.9986 47.9184 43.6478 46.8662 43 46C42.66 45.547 42.25 45.16 41.781 44.844C42.523 44.117 43 43.114 43 42C43 39.8 41.2 38 39 38C36.8 38 35 39.8 35 42C35 43.113 35.477 44.117 36.219 44.844C35.7504 45.1578 35.3382 45.5487 35 46ZM43 46H45C45 44.332 46.332 43 48 43C49.668 43 51 44.332 51 46H53C52.9966 45.1789 52.7927 44.3711 52.406 43.6468C52.0193 42.9224 51.4614 42.3036 50.781 41.844C51.523 41.117 52 40.114 52 39C52 36.8 50.2 35 48 35C45.8 35 44 36.8 44 39C44 40.113 44.477 41.117 45.219 41.844C44.5386 42.3036 43.9807 42.9224 43.594 43.6468C43.2073 44.3711 43.0034 45.1789 43 46ZM30 37C31.117 37 32 37.883 32 39C32 40.117 31.117 41 30 41C28.883 41 28 40.117 28 39C28 37.883 28.883 37 30 37ZM48 37C49.117 37 50 37.883 50 39C50 40.117 49.117 41 48 41C46.883 41 46 40.117 46 39C46 37.883 46.883 37 48 37ZM39 40C40.117 40 41 40.883 41 42C41 43.117 40.117 44 39 44C37.883 44 37 43.117 37 42C37 40.883 37.883 40 39 40Z" fill="#6A0DAD"/>
</svg>
