<svg width="78" height="79" viewBox="0 0 78 79" fill="none" xmlns="http://www.w3.org/2000/svg">
<rect y="0.5" width="78" height="78" rx="39" fill="#E5FFE0"/>
<path d="M32.333 47.5V44.8334M38.9997 47.5V43.5M45.6663 47.5V40.8334M26.333 39.5C26.333 33.5294 26.333 30.5427 28.1877 28.688C30.0423 26.8334 33.0277 26.8334 38.9997 26.8334C44.9703 26.8334 47.957 26.8334 49.8117 28.688C51.6663 30.5427 51.6663 33.528 51.6663 39.5C51.6663 45.4707 51.6663 48.4574 49.8117 50.312C47.957 52.1667 44.9717 52.1667 38.9997 52.1667C33.029 52.1667 30.0423 52.1667 28.1877 50.312C26.333 48.4574 26.333 45.472 26.333 39.5Z" stroke="#208C0D" stroke-width="2" stroke-linecap="round" stroke-linejoin="round"/>
<path d="M30.9893 38.8147C33.8626 38.9107 40.3786 38.4774 44.0853 32.5947M41.6559 31.884L44.1573 31.4814C44.4613 31.4427 44.9093 31.684 45.0199 31.9707L45.6799 34.1547" stroke="#208C0D" stroke-width="2" stroke-linecap="round" stroke-linejoin="round"/>
</svg>
