<svg width="78" height="79" viewBox="0 0 78 79" fill="none" xmlns="http://www.w3.org/2000/svg">
<rect y="0.5" width="78" height="78" rx="39" fill="#F4E4FF"/>
<path fill-rule="evenodd" clip-rule="evenodd" d="M36.2611 26.2654H39.0745C41.5278 26.2654 43.4611 26.2654 44.9811 26.4654C46.5411 26.6787 47.8078 27.1187 48.8078 28.1187C49.8078 29.1187 50.2478 30.3854 50.4611 31.9454C50.6611 33.4654 50.6611 35.412 50.6611 37.852V38.5987C50.6611 39.1454 50.2078 39.5987 49.6611 39.5987C49.1145 39.5987 48.6611 39.1454 48.6611 38.5987V37.932C48.6611 35.3854 48.6611 33.5854 48.4745 32.212C48.2878 30.8654 47.9545 30.092 47.3945 29.532C46.8345 28.972 46.0611 28.6254 44.7145 28.452C43.3411 28.2654 41.5411 28.2654 38.9945 28.2654H36.3278C33.7811 28.2654 31.9811 28.2654 30.6078 28.452C29.2611 28.6254 28.4878 28.972 27.9278 29.532C27.3678 30.092 27.0211 30.8654 26.8478 32.212C26.6611 33.5854 26.6611 35.3854 26.6611 37.932V41.932C26.6611 44.4787 26.6611 46.2787 26.8478 47.6521C27.0345 48.9987 27.3678 49.772 27.9278 50.3321C28.4878 50.892 29.2611 51.2387 30.6078 51.412C31.9811 51.5987 33.7811 51.5987 36.3278 51.5987H37.6611C38.2078 51.5987 38.6611 52.052 38.6611 52.5987C38.6611 53.1454 38.2078 53.5987 37.6611 53.5987H36.2478C33.7945 53.5987 31.8611 53.5987 30.3411 53.3987C28.7811 53.1854 27.5145 52.7454 26.5145 51.7454C25.5145 50.7454 25.0745 49.4787 24.8611 47.9187C24.6611 46.3987 24.6611 44.452 24.6611 42.012V37.8654C24.6611 35.412 24.6611 33.4787 24.8611 31.9587C25.0745 30.3987 25.5145 29.132 26.5145 28.132C27.5145 27.132 28.7811 26.692 30.3411 26.4787C31.8611 26.2787 33.8078 26.2787 36.2478 26.2787L36.2611 26.2654ZM48.7278 43.4387C48.1145 41.8787 45.9011 41.8787 45.2878 43.4387L45.2345 43.5587C44.9435 44.2984 44.5033 44.9701 43.9413 45.5322C43.3792 46.0942 42.7075 46.5344 41.9678 46.8254L41.8478 46.8787C40.2878 47.4921 40.2878 49.7054 41.8478 50.3187L41.9678 50.372C43.4611 50.9587 44.6478 52.1454 45.2345 53.6387L45.2878 53.7587C45.9011 55.3187 48.1145 55.3187 48.7278 53.7587L48.7811 53.6387C49.0721 52.8991 49.5123 52.2273 50.0743 51.6653C50.6364 51.1032 51.3081 50.663 52.0478 50.372L52.1678 50.3187C53.7278 49.7054 53.7278 47.4921 52.1678 46.8787L52.0478 46.8254C51.3081 46.5344 50.6364 46.0942 50.0743 45.5322C49.5123 44.9701 49.0721 44.2984 48.7811 43.5587L48.7278 43.4387ZM47.0078 44.5187C47.794 46.3518 49.2547 47.8125 51.0878 48.5987C49.2547 49.3849 47.794 50.8456 47.0078 52.6787C46.2216 50.8456 44.7609 49.3849 42.9278 48.5987C44.7609 47.8125 46.2216 46.3518 47.0078 44.5187ZM32.3411 32.932C31.7945 32.932 31.3411 33.3854 31.3411 33.932C31.3411 34.4787 31.7945 34.932 32.3411 34.932H43.0078C43.5545 34.932 44.0078 34.4787 44.0078 33.932C44.0078 33.3854 43.5545 32.932 43.0078 32.932H32.3411ZM32.3411 38.932C31.7945 38.932 31.3411 39.3854 31.3411 39.932C31.3411 40.4787 31.7945 40.932 32.3411 40.932H43.0078C43.5545 40.932 44.0078 40.4787 44.0078 39.932C44.0078 39.3854 43.5545 38.932 43.0078 38.932H32.3411ZM32.3411 44.932C31.7945 44.932 31.3411 45.3854 31.3411 45.932C31.3411 46.4787 31.7945 46.932 32.3411 46.932H37.6745C38.2211 46.932 38.6745 46.4787 38.6745 45.932C38.6745 45.3854 38.2211 44.932 37.6745 44.932H32.3411Z" fill="#6A0DAD"/>
</svg>
