<?xml version="1.0" encoding="UTF-8"?>
<!DOCTYPE svg PUBLIC "-//W3C//DTD SVG 1.1//EN" "http://www.w3.org/Graphics/SVG/1.1/DTD/svg11.dtd">
<!-- Creator: CorelDRAW 2019 (64-Bit) -->
<svg xmlns="http://www.w3.org/2000/svg" xml:space="preserve" width="10.8304in" height="5.96489in" version="1.1" style="shape-rendering:geometricPrecision; text-rendering:geometricPrecision; image-rendering:optimizeQuality; fill-rule:evenodd; clip-rule:evenodd"
viewBox="0 0 10830.43 5964.9"
 xmlns:xlink="http://www.w3.org/1999/xlink">
 <defs>
  <style type="text/css">
   <![CDATA[
    .fil0 {fill:white}
    .fil1 {fill:white;fill-rule:nonzero}
   ]]>
  </style>
 </defs>
 <g id="Layer_x0020_1">
  <metadata id="CorelCorpID_0Corel-Layer"/>
  <g id="_2864767758464">
   <g>
    <path class="fil0" d="M3944.26 3692.57l564.48 13.67 -5.26 -561.84 1457.83 -0.69c-69.9,-209.76 -225.05,-587.81 -473.02,-587.81l-983.57 0 -0.67 -870.73c226.95,25.33 509.13,169.83 679.26,275.02 600.94,371.55 1021.53,967.68 1104.56,1744.67l540.67 0c-86.18,-1101.28 -822.47,-2018.82 -1738.46,-2399.79 -246.45,-102.5 -843.04,-274.13 -1145.78,-214.12l-0.05 2601.61z"/>
    <path class="fil0" d="M5740.02 566.63c252.15,7.39 454.94,228.24 529.54,423.91 137.98,361.87 -68.6,556.89 -179.22,751.88 93.61,79.06 276.45,293.75 339.63,406.04 323.43,-142.16 835.03,-1132.49 10.99,-1876.78 -453.18,-409.31 -1641.33,-222.38 -2487.66,-264.72l-1.86 522.85c220.42,0 1733.15,-45.93 1788.58,36.82z"/>
   </g>
   <path class="fil1" d="M7537.9 202.82c35.6,0 70.33,9.11 104.3,27.44 33.87,18.23 60.35,44.43 79.26,78.39 18.9,34.06 28.4,69.56 28.4,106.41 0,36.56 -9.31,71.77 -28.02,105.45 -18.61,33.78 -44.71,59.97 -78.39,78.59 -33.68,18.71 -68.89,28.02 -105.55,28.02 -36.75,0 -71.96,-9.31 -105.64,-28.02 -33.68,-18.62 -59.87,-44.81 -78.59,-78.59 -18.71,-33.68 -28.11,-68.89 -28.11,-105.45 0,-36.85 9.5,-72.35 28.5,-106.41 19.09,-33.97 45.57,-60.17 79.44,-78.39 33.97,-18.33 68.7,-27.44 104.4,-27.44zm0 35.12c-29.84,0 -58.91,7.67 -87.13,22.93 -28.21,15.26 -50.28,37.13 -66.2,65.54 -15.93,28.4 -23.89,57.96 -23.89,88.66 0,30.61 7.87,59.87 23.51,87.89 15.64,28.02 37.52,49.89 65.63,65.54 28.11,15.64 57.47,23.51 88.08,23.51 30.51,0 59.87,-7.87 87.99,-23.51 28.11,-15.64 49.99,-37.52 65.53,-65.54 15.55,-28.02 23.32,-57.28 23.32,-87.89 0,-30.7 -7.96,-60.26 -23.8,-88.66 -15.83,-28.4 -37.9,-50.28 -66.21,-65.54 -28.31,-15.26 -57.28,-22.93 -86.83,-22.93zm-93.17 294.19l0 -227.98 78.49 0c26.87,0 46.25,2.11 58.24,6.33 12.09,4.22 21.59,11.51 28.79,22.07 7.1,10.46 10.65,21.59 10.65,33.39 0,16.6 -5.95,31.19 -17.94,43.47 -11.9,12.38 -27.73,19.28 -47.5,20.82 8.06,3.36 14.58,7.39 19.38,12.09 9.21,8.93 20.44,23.99 33.78,45.19l27.82 44.62 -44.71 0 -20.34 -35.89c-15.93,-28.31 -28.88,-46.06 -38.67,-53.16 -6.72,-5.18 -16.5,-7.77 -29.46,-7.68l-21.69 0 0 96.72 -36.85 0zm36.85 -128.38l44.71 0c21.4,0 35.98,-3.17 43.75,-9.5 7.77,-6.33 11.71,-14.78 11.71,-25.14 0,-6.72 -1.92,-12.76 -5.66,-18.04 -3.74,-5.37 -8.93,-9.31 -15.55,-11.9 -6.72,-2.59 -19,-3.94 -37.04,-3.94l-41.93 0 0 68.51z"/>
   <path class="fil1" d="M1584.78 4851.7c0,-310.61 -226.72,-491.98 -621.21,-491.98l-646.15 0 -317.41 1587.04 369.56 0 88.42 -444.37 312.87 0 249.39 444.37 387.69 0 -276.6 -489.72c283.4,-88.42 453.44,-306.07 453.44,-605.34zm-757.25 358.22l-312.87 0 111.09 -550.93 290.2 0c188.18,0 297,72.55 297,226.72 0,210.85 -142.83,324.21 -385.43,324.21z"/>
   <path id="1" class="fil1" d="M2967.77 5246.19c0,-326.48 -224.45,-537.32 -580.4,-537.32 -423.97,0 -718.71,301.54 -718.71,709.63 0,331.01 242.59,546.39 623.48,546.39 185.91,0 369.56,-49.88 510.12,-163.24l-147.37 -233.52c-83.89,72.55 -201.78,113.36 -326.48,113.36 -201.78,0 -303.8,-83.89 -315.14,-249.39l934.09 0c11.34,-56.68 20.41,-120.16 20.41,-185.91zm-596.28 -272.06c163.24,0 272.07,90.69 272.07,251.66l-605.34 0c47.61,-151.91 163.24,-251.66 333.28,-251.66z"/>
   <polygon id="2" class="fil1" points="3067.53,5946.76 3421.21,5946.76 3756.76,4264.5 3403.07,4264.5 "/>
   <path id="3" class="fil1" d="M4228.34 4556.96c140.57,0 235.79,-88.42 235.79,-217.65 0,-99.76 -83.89,-176.84 -208.58,-176.84 -140.57,0 -233.52,92.96 -233.52,210.85 0,102.02 81.62,183.64 206.32,183.64zm-478.38 1389.8l351.41 0 242.59 -1219.76 -351.42 0 -242.59 1219.76z"/>
   <path id="4" class="fil1" d="M5722.43 5946.76l167.77 0 -408.09 -1587.04 -165.51 0 -1042.91 1587.04 181.37 0 274.33 -423.97 886.48 0 106.56 423.97zm-906.88 -560l553.2 -857 215.39 857 -768.58 0z"/>
   <path id="5" class="fil1" d="M6454.73 5958.09c317.41,0 528.26,-136.03 528.26,-372.2 0,-397.14 -675.63,-208.96 -675.63,-485.18 0,-129.23 124.7,-217.28 344.61,-217.28 122.43,0 256.2,31.37 349.15,101.65l68.02 -128.85c-90.69,-68.02 -251.66,-111.09 -403.56,-111.09 -312.87,0 -516.93,145.1 -516.93,371.45 0,403.56 675.63,217.27 675.63,487.45 0,134.14 -124.69,213.49 -353.68,213.49 -163.24,0 -321.95,-52.15 -412.63,-131.5l-77.09 126.96c92.96,83.89 278.87,145.1 473.85,145.1z"/>
   <path id="6" class="fil1" d="M7563.4 5958.09c317.41,0 528.26,-136.03 528.26,-372.2 0,-397.14 -675.63,-208.96 -675.63,-485.18 0,-129.23 124.7,-217.28 344.61,-217.28 122.43,0 256.2,31.37 349.15,101.65l68.02 -128.85c-90.69,-68.02 -251.66,-111.09 -403.56,-111.09 -312.87,0 -516.93,145.1 -516.93,371.45 0,403.56 675.63,217.27 675.63,487.45 0,134.14 -124.69,213.49 -353.68,213.49 -163.24,0 -321.95,-52.15 -412.63,-131.5l-77.09 126.96c92.96,83.89 278.87,145.1 473.85,145.1z"/>
   <path id="7" class="fil1" d="M8710.6 4493.48c72.55,0 126.96,-54.41 126.96,-126.96 0,-54.41 -47.61,-102.02 -111.09,-102.02 -72.55,0 -124.7,54.41 -124.7,122.43 0,56.68 45.34,106.56 108.83,106.56zm-385.43 1453.28l160.97 0 235.79 -1192.55 -160.97 0 -235.79 1192.55z"/>
   <path id="8" class="fil1" d="M9281.94 5958.09c317.41,0 528.26,-136.03 528.26,-372.2 0,-397.14 -675.63,-208.96 -675.63,-485.18 0,-129.23 124.7,-217.28 344.61,-217.28 122.43,0 256.2,31.37 349.15,101.65l68.02 -128.85c-90.69,-68.02 -251.66,-111.09 -403.56,-111.09 -312.87,0 -516.93,145.1 -516.93,371.45 0,403.56 675.63,217.27 675.63,487.45 0,134.14 -124.69,213.49 -353.68,213.49 -163.24,0 -321.95,-52.15 -412.63,-131.5l-77.09 126.96c92.96,83.89 278.87,145.1 473.85,145.1z"/>
   <path id="9" class="fil1" d="M10440.48 4890.24l362.75 0 27.2 -136.03 -362.75 0 52.15 -260.73 -160.97 0 -52.15 260.73 -213.12 0 -24.94 136.03 210.85 0 -138.3 702.83c-6.8,31.74 -9.07,63.48 -9.07,92.96 0,170.04 111.09,272.06 290.2,272.06 90.69,0 190.45,-20.4 265.26,-77.08l-38.54 -122.43c-54.41,40.81 -117.89,61.21 -183.65,61.21 -115.63,0 -172.31,-56.68 -172.31,-158.7 0,-22.67 4.54,-47.61 9.07,-74.82l138.3 -696.03z"/>
  </g>
 </g>
</svg>
