<svg width="88" height="88" viewBox="0 0 88 88" fill="none" xmlns="http://www.w3.org/2000/svg">
<rect width="88" height="88" rx="44" fill="white" fill-opacity="0.2"/>
<path d="M26.2002 39.4C26.2002 34.9444 27.9702 30.6712 31.1208 27.5206C34.2714 24.37 38.5446 22.6 43.0002 22.6C47.4558 22.6 51.729 24.37 54.8796 27.5206C58.0302 30.6712 59.8002 34.9444 59.8002 39.4V47.8C59.8002 49.2852 59.2102 50.7096 58.16 51.7598C57.1098 52.81 55.6854 53.4 54.2002 53.4H51.4002C50.6576 53.4 49.9454 53.105 49.4203 52.5799C48.8952 52.0548 48.6002 51.3426 48.6002 50.6V42.2C48.6002 41.4574 48.8952 40.7452 49.4203 40.2201C49.9454 39.695 50.6576 39.4 51.4002 39.4H57.0002C57.0002 35.687 55.5252 32.126 52.8997 29.5005C50.2742 26.875 46.7132 25.4 43.0002 25.4C39.2872 25.4 35.7262 26.875 33.1007 29.5005C30.4752 32.126 29.0002 35.687 29.0002 39.4H34.6002C35.3428 39.4 36.055 39.695 36.5801 40.2201C37.1052 40.7452 37.4002 41.4574 37.4002 42.2V50.6C37.4002 51.3426 37.1052 52.0548 36.5801 52.5799C36.055 53.105 35.3428 53.4 34.6002 53.4H29.0002V56.2C29.0002 57.6852 29.5902 59.1096 30.6404 60.1598C31.6906 61.21 33.115 61.8 34.6002 61.8H37.4002C37.4001 60.4414 37.894 59.1291 38.7897 58.1076C39.6855 57.0861 40.922 56.4251 42.269 56.2477C43.616 56.0703 44.9815 56.3886 46.1112 57.1434C47.2408 57.8981 48.0576 59.0378 48.4093 60.3501C48.761 61.6624 48.6236 63.0578 48.0228 64.2763C47.422 65.4949 46.3986 66.4534 45.1435 66.9734C43.8883 67.4934 42.4869 67.5393 41.2004 67.1027C39.9139 66.666 38.83 65.7766 38.1506 64.6H34.6002C32.3724 64.6 30.2358 63.715 28.6605 62.1397C27.0852 60.5644 26.2002 58.4278 26.2002 56.2V39.4ZM57.0002 42.2H51.4002V50.6H54.2002C54.9428 50.6 55.655 50.305 56.1801 49.7799C56.7052 49.2548 57.0002 48.5426 57.0002 47.8V42.2ZM29.0002 50.6H34.6002V42.2H29.0002V50.6ZM40.2002 61.8C40.2002 62.5426 40.4952 63.2548 41.0203 63.7799C41.5454 64.305 42.2576 64.6 43.0002 64.6C43.7428 64.6 44.455 64.305 44.9801 63.7799C45.5052 63.2548 45.8002 62.5426 45.8002 61.8C45.8002 61.0574 45.5052 60.3452 44.9801 59.8201C44.455 59.295 43.7428 59 43.0002 59C42.2576 59 41.5454 59.295 41.0203 59.8201C40.4952 60.3452 40.2002 61.0574 40.2002 61.8Z" fill="white"/>
</svg>
