<svg width="39" height="39" viewBox="0 0 39 39" fill="none" xmlns="http://www.w3.org/2000/svg">
<rect opacity="0.25" x="0.5" y="0.5" width="38" height="38" rx="19" stroke="#666666"/>
<path d="M25.9647 17.5366C25.958 17.0317 25.8635 16.5318 25.6854 16.0593C25.5309 15.6607 25.2951 15.2988 24.9928 14.9965C24.6906 14.6943 24.3286 14.4584 23.93 14.304C23.4636 14.1289 22.9708 14.0342 22.4727 14.024C21.8314 13.9953 21.628 13.9873 20 13.9873C18.372 13.9873 18.1634 13.9873 17.5267 14.024C17.0288 14.0343 16.5363 14.129 16.07 14.304C15.6714 14.4583 15.3094 14.6941 15.0071 14.9964C14.7049 15.2987 14.469 15.6607 14.3147 16.0593C14.1393 16.5254 14.0448 17.018 14.0354 17.516C14.0067 18.158 13.998 18.3613 13.998 19.9893C13.998 21.6173 13.998 21.8253 14.0354 22.4626C14.0454 22.9613 14.1394 23.4533 14.3147 23.9206C14.4693 24.3191 14.7053 24.681 15.0077 24.9832C15.31 25.2853 15.6721 25.521 16.0707 25.6753C16.5357 25.8574 17.0283 25.9589 17.5274 25.9753C18.1694 26.004 18.3727 26.0126 20.0007 26.0126C21.6287 26.0126 21.8374 26.0126 22.474 25.9753C22.9721 25.9655 23.465 25.871 23.9314 25.696C24.3298 25.5414 24.6917 25.3054 24.9939 25.0032C25.2962 24.701 25.5321 24.3391 25.6867 23.9406C25.862 23.474 25.956 22.982 25.966 22.4826C25.9947 21.8413 26.0034 21.638 26.0034 20.0093C26.002 18.3813 26.002 18.1746 25.9647 17.5366ZM19.996 23.068C18.2934 23.068 16.914 21.6886 16.914 19.986C16.914 18.2833 18.2934 16.904 19.996 16.904C20.8134 16.904 21.5974 17.2287 22.1754 17.8067C22.7533 18.3847 23.078 19.1686 23.078 19.986C23.078 20.8034 22.7533 21.5873 22.1754 22.1653C21.5974 22.7433 20.8134 23.068 19.996 23.068ZM23.2007 17.5086C23.1063 17.5087 23.0128 17.4902 22.9256 17.4541C22.8384 17.418 22.7591 17.3651 22.6923 17.2983C22.6256 17.2316 22.5727 17.1523 22.5366 17.0651C22.5005 16.9779 22.482 16.8844 22.482 16.79C22.482 16.6956 22.5006 16.6022 22.5367 16.5151C22.5728 16.4279 22.6257 16.3487 22.6924 16.282C22.7591 16.2153 22.8383 16.1624 22.9255 16.1263C23.0126 16.0902 23.106 16.0716 23.2004 16.0716C23.2947 16.0716 23.3881 16.0902 23.4753 16.1263C23.5624 16.1624 23.6416 16.2153 23.7083 16.282C23.775 16.3487 23.8279 16.4279 23.864 16.5151C23.9001 16.6022 23.9187 16.6956 23.9187 16.79C23.9187 17.1873 23.5974 17.5086 23.2007 17.5086Z" fill="#666666"/>
<path d="M19.9961 21.9884C21.1018 21.9884 21.9981 21.092 21.9981 19.9864C21.9981 18.8807 21.1018 17.9844 19.9961 17.9844C18.8905 17.9844 17.9941 18.8807 17.9941 19.9864C17.9941 21.092 18.8905 21.9884 19.9961 21.9884Z" fill="#666666"/>
</svg>
