<svg width="78" height="79" viewBox="0 0 78 79" fill="none" xmlns="http://www.w3.org/2000/svg">
<rect y="0.5" width="78" height="78" rx="39" fill="#F4E4FF"/>
<path d="M28.1336 34.9934C27.939 34.1168 27.9689 33.2052 28.2205 32.3432C28.4721 31.4812 28.9373 30.6966 29.5729 30.0623C30.2085 29.428 30.994 28.9645 31.8565 28.7147C32.7191 28.4649 33.6307 28.4369 34.5069 28.6334C34.9892 27.8791 35.6536 27.2584 36.4389 26.8284C37.2241 26.3985 38.105 26.1731 39.0003 26.1731C39.8955 26.1731 40.7764 26.3985 41.5617 26.8284C42.3469 27.2584 43.0113 27.8791 43.4936 28.6334C44.3711 28.4361 45.2844 28.4639 46.1483 28.7143C47.0122 28.9647 47.7987 29.4296 48.4347 30.0656C49.0707 30.7016 49.5356 31.4881 49.786 32.3521C50.0364 33.216 50.0642 34.1292 49.8669 35.0067C50.6212 35.489 51.2419 36.1534 51.6719 36.9386C52.1018 37.7239 52.3272 38.6048 52.3272 39.5C52.3272 40.3953 52.1018 41.2762 51.6719 42.0614C51.2419 42.8467 50.6212 43.5111 49.8669 43.9934C50.0634 44.8696 50.0354 45.7812 49.7856 46.6438C49.5358 47.5063 49.0723 48.2918 48.438 48.9274C47.8037 49.5631 47.0191 50.0282 46.1571 50.2798C45.2951 50.5314 44.3836 50.5613 43.5069 50.3667C43.0253 51.1239 42.3604 51.7473 41.5738 52.1791C40.7872 52.611 39.9043 52.8375 39.0069 52.8375C38.1096 52.8375 37.2267 52.611 36.4401 52.1791C35.6535 51.7473 34.9886 51.1239 34.5069 50.3667C33.6307 50.5632 32.7191 50.5352 31.8565 50.2854C30.994 50.0356 30.2085 49.5721 29.5729 48.9378C28.9373 48.3035 28.4721 47.5189 28.2205 46.6569C27.9689 45.7949 27.939 44.8833 28.1336 44.0067C27.3735 43.5257 26.7475 42.8603 26.3137 42.0723C25.8798 41.2844 25.6523 40.3995 25.6523 39.5C25.6523 38.6006 25.8798 37.7157 26.3137 36.9278C26.7475 36.1398 27.3735 35.4744 28.1336 34.9934Z" stroke="#6A0DAD" stroke-width="2.66667" stroke-linecap="round" stroke-linejoin="round"/>
<path d="M35 39.5L37.6667 42.1667L43 36.8334" stroke="#6A0DAD" stroke-width="2.66667" stroke-linecap="round" stroke-linejoin="round"/>
</svg>
