<svg width="78" height="78" viewBox="0 0 78 78" fill="none" xmlns="http://www.w3.org/2000/svg">
<rect width="78" height="78" rx="39" fill="#E5FFE0"/>
<path fill-rule="evenodd" clip-rule="evenodd" d="M47.193 39.3601C47.725 39.5867 48.2824 39.6934 48.8397 39.6934H48.833H48.8464H48.8397C50.1317 39.6921 51.4357 39.1054 52.6597 37.9601C53.913 36.8001 54.4464 34.4934 52.6597 32.2001C51.8464 31.1467 51.4197 30.1201 51.273 28.8001C51.193 27.9867 51.073 26.9601 50.313 26.2134C49.3797 25.3201 48.0597 24.9601 47.1797 25.0001L31.7397 25.0401C30.273 24.9734 29.3797 25.5201 28.8864 26.0001C28.073 26.7734 27.7797 27.8401 27.7797 28.5867C27.7797 29.0934 27.7797 30.0534 26.4197 32.0934C24.8064 34.5201 24.8597 35.5334 25.8597 37.3734C26.033 37.6961 26.2464 37.9734 26.4864 38.2134V43.3201C26.4864 47.2401 26.4863 49.4001 27.953 50.8667C29.4197 52.3334 31.5663 52.3334 35.4864 52.3334H38.153C38.6997 52.3334 39.153 51.8801 39.153 51.3334C39.153 50.7867 38.6997 50.3334 38.153 50.3334H35.4864C31.993 50.3334 30.2464 50.3334 29.3664 49.4534C28.4864 48.5734 28.4863 46.8134 28.4863 43.3201V39.3841C29.1957 39.6174 29.7904 39.6827 29.953 39.6934C31.353 39.7201 32.593 39.2401 33.553 38.3067C33.873 38.0001 34.153 37.6401 34.3797 37.2534C36.4197 39.8667 39.7397 39.8801 41.4997 39.3867C42.6597 39.0534 43.7797 38.2667 44.6063 37.2667C45.153 38.2001 45.9797 38.8534 47.193 39.3601ZM44.9397 33.6401H44.873V33.6267C44.4064 33.6267 44.0064 33.9467 43.8997 34.4001C43.633 35.5601 42.393 37.0534 40.9797 37.4534C40.793 37.5067 36.4997 38.6401 35.0997 34.3201C35.0253 34.0954 34.8735 33.9044 34.6714 33.7813C34.4693 33.6581 34.23 33.6107 33.9962 33.6475C33.7625 33.6844 33.5494 33.803 33.3949 33.9824C33.2405 34.1617 33.1547 34.3901 33.153 34.6267C33.153 35.2267 32.8864 36.1734 32.1664 36.8801C31.593 37.4401 30.8464 37.7201 30.073 37.6934C29.353 37.6267 28.0597 37.2267 27.6197 36.4267C26.993 35.2801 26.873 35.0401 28.0864 33.2001C29.5797 30.9601 29.7797 29.6667 29.7797 28.5867C29.7797 28.3334 29.873 27.8001 30.2597 27.4401C30.5664 27.1467 31.033 27.0134 31.6863 27.0401L47.2197 27.0001H47.2864C47.5797 26.9734 48.3797 27.1201 48.9264 27.6534C49.1664 27.8934 49.233 28.4667 49.2997 29.0934C49.473 30.7067 50.0464 32.0801 51.0997 33.4267C52.273 34.9334 51.793 36.0667 51.3264 36.5067C50.153 37.6134 49.0197 37.9601 47.9664 37.5201C46.5664 36.9467 46.0597 36.2134 45.873 34.5334C45.8509 34.2971 45.7443 34.0768 45.5729 33.9127C45.4015 33.7486 45.1767 33.6518 44.9397 33.6401ZM46.8197 53.6667C46.273 53.6667 45.8197 53.2134 45.8197 52.6667V51.7734C44.9797 51.5867 44.233 51.1601 43.6197 50.5467L42.6864 51.1467C42.2197 51.4401 41.6064 51.3067 41.2997 50.8401C41.1589 50.6148 41.1121 50.3434 41.1695 50.084C41.2268 49.8247 41.3837 49.5982 41.6063 49.4534L42.5664 48.8401C42.393 48.3601 42.313 47.8534 42.313 47.3334C42.313 46.8134 42.393 46.3067 42.5664 45.8267L41.6063 45.2134C41.382 45.07 41.2238 44.8434 41.1663 44.5835C41.1088 44.3235 41.1568 44.0514 41.2997 43.8267C41.593 43.3601 42.2197 43.2267 42.6864 43.5201L43.6197 44.1201C44.2197 43.5067 44.9797 43.0801 45.8197 42.8934V42.0001C45.8197 41.4534 46.273 41.0001 46.8197 41.0001C47.3664 41.0001 47.8197 41.4534 47.8197 42.0001V42.8934C48.6597 43.0801 49.4064 43.5067 50.0197 44.1201L50.953 43.5201C51.4197 43.2267 52.033 43.3601 52.3397 43.8267C52.633 44.2934 52.4997 44.9067 52.033 45.2134L51.073 45.8267C51.2464 46.3067 51.3264 46.8267 51.3264 47.3334C51.3264 47.8401 51.2464 48.3601 51.073 48.8401L52.033 49.4534C52.4997 49.7467 52.633 50.3601 52.3397 50.8401C52.0464 51.3067 51.4197 51.4401 50.953 51.1467L50.0197 50.5467C49.4197 51.1601 48.6597 51.5867 47.8197 51.7734V52.6667C47.8197 53.2134 47.3664 53.6667 46.8197 53.6667ZM44.6997 48.6934C45.1663 49.4401 45.953 49.8934 46.8197 49.8934C47.6864 49.8934 48.473 49.4534 48.9397 48.6934C49.1908 48.2842 49.3237 47.8135 49.3237 47.3334C49.3237 46.8533 49.1908 46.3826 48.9397 45.9734C48.473 45.2267 47.6864 44.7867 46.8197 44.7867C45.953 44.7867 45.1663 45.2267 44.6997 45.9734C44.4486 46.3826 44.3156 46.8533 44.3156 47.3334C44.3156 47.8135 44.4486 48.2842 44.6997 48.6934Z" fill="#208C0D"/>
</svg>
