<svg width="78" height="79" viewBox="0 0 78 79" fill="none" xmlns="http://www.w3.org/2000/svg">
<rect y="0.5" width="78" height="78" rx="39" fill="#F4E4FF"/>
<path d="M35 52.5H43M41 33.5L38 36.5L40 38.5L37 41.5M49 36.5V38.5C49 40.1 47.666 41.834 47 42.5L44 45.5L43 48.5H35L34 45.5L31 42.5C30.334 41.834 29 40.1 29 38.5V36.5C29 33.8478 30.0536 31.3043 31.9289 29.4289C33.8043 27.5536 36.3478 26.5 39 26.5C41.6522 26.5 44.1957 27.5536 46.0711 29.4289C47.9464 31.3043 49 33.8478 49 36.5Z" stroke="#6A0DAD" stroke-width="2"/>
</svg>
