<svg width="78" height="79" viewBox="0 0 78 79" fill="none" xmlns="http://www.w3.org/2000/svg">
<rect y="0.5" width="78" height="78" rx="39" fill="#F4E4FF"/>
<path d="M29 28.5C29 28.2348 28.8946 27.9804 28.7071 27.7929C28.5196 27.6054 28.2652 27.5 28 27.5C27.7348 27.5 27.4804 27.6054 27.2929 27.7929C27.1054 27.9804 27 28.2348 27 28.5V46.5C27 47.8261 27.5268 49.0979 28.4645 50.0355C29.4021 50.9732 30.6739 51.5 32 51.5H50C50.2652 51.5 50.5196 51.3946 50.7071 51.2071C50.8946 51.0196 51 50.7652 51 50.5C51 50.2348 50.8946 49.9804 50.7071 49.7929C50.5196 49.6054 50.2652 49.5 50 49.5H32C31.2044 49.5 30.4413 49.1839 29.8787 48.6213C29.3161 48.0587 29 47.2956 29 46.5V28.5ZM43 32.5C43 32.7652 43.1054 33.0196 43.2929 33.2071C43.4804 33.3946 43.7348 33.5 44 33.5H47.586L41 40.086L37.708 36.792C37.6151 36.6989 37.5048 36.625 37.3833 36.5746C37.2618 36.5242 37.1315 36.4982 37 36.4982C36.8685 36.4982 36.7382 36.5242 36.6167 36.5746C36.4952 36.625 36.3849 36.6989 36.292 36.792L31.292 41.792C31.199 41.885 31.1253 41.9954 31.075 42.1168C31.0246 42.2383 30.9987 42.3685 30.9987 42.5C30.9987 42.6315 31.0246 42.7617 31.075 42.8832C31.1253 43.0046 31.199 43.115 31.292 43.208C31.385 43.301 31.4954 43.3747 31.6168 43.425C31.7383 43.4754 31.8685 43.5013 32 43.5013C32.1315 43.5013 32.2617 43.4754 32.3832 43.425C32.5046 43.3747 32.615 43.301 32.708 43.208L37 38.914L40.292 42.208C40.3849 42.3011 40.4952 42.375 40.6167 42.4254C40.7382 42.4758 40.8685 42.5018 41 42.5018C41.1315 42.5018 41.2618 42.4758 41.3833 42.4254C41.5048 42.375 41.6151 42.3011 41.708 42.208L49 34.914V38.654C49 38.9192 49.1054 39.1736 49.2929 39.3611C49.4804 39.5486 49.7348 39.654 50 39.654C50.2652 39.654 50.5196 39.5486 50.7071 39.3611C50.8946 39.1736 51 38.9192 51 38.654V32.5C51 32.2348 50.8946 31.9804 50.7071 31.7929C50.5196 31.6054 50.2652 31.5 50 31.5H44C43.7348 31.5 43.4804 31.6054 43.2929 31.7929C43.1054 31.9804 43 32.2348 43 32.5Z" fill="#6A0DAD"/>
</svg>
