<svg width="78" height="78" viewBox="0 0 78 78" fill="none" xmlns="http://www.w3.org/2000/svg">
<rect width="78" height="78" rx="39" fill="#F4E4FF"/>
<path d="M33.6267 36.1813H44.3734M33.6267 41.8186H41.2907M39.0001 51.3333C41.6792 51.3327 44.2854 50.4598 46.4243 48.8464C48.5633 47.233 50.1187 44.9671 50.8554 42.3911C51.592 39.8152 51.4699 37.0695 50.5074 34.5692C49.5449 32.0688 47.7943 29.9499 45.5206 28.5329C43.2468 27.1159 40.5734 26.4778 37.9048 26.7151C35.2362 26.9525 32.7174 28.0524 30.7294 29.8484C28.7414 31.6445 27.3923 34.0391 26.8862 36.67C26.38 39.301 26.7444 42.0252 27.9241 44.4306C28.0681 44.724 28.1161 45.0546 28.0427 45.372L26.9547 50.0866C26.9241 50.219 26.9276 50.3569 26.965 50.4875C27.0023 50.618 27.0723 50.737 27.1684 50.833C27.2644 50.929 27.3833 50.999 27.5139 51.0364C27.6445 51.0738 27.7824 51.0773 27.9147 51.0466L32.6281 49.9573C32.9463 49.8876 33.2788 49.93 33.5694 50.0773C35.2593 50.9072 37.1174 51.3369 39.0001 51.3333Z" stroke="#6A0DAD" stroke-width="2" stroke-linecap="round" stroke-linejoin="round"/>
</svg>
