<svg width="78" height="78" viewBox="0 0 78 78" fill="none" xmlns="http://www.w3.org/2000/svg">
<rect width="78" height="78" rx="39" fill="#E5FFE0"/>
<path d="M39.8002 42.2C40.4367 42.2 41.0472 42.4528 41.4973 42.9029C41.9473 43.353 42.2002 43.9634 42.2002 44.6V45.4C42.2002 48.5536 39.2242 51.8 34.2002 51.8C29.1762 51.8 26.2002 48.5536 26.2002 45.4V44.6C26.2002 43.9634 26.4531 43.353 26.9031 42.9029C27.3532 42.4528 27.9637 42.2 28.6002 42.2H39.8002ZM39.8002 43.8H28.6002C28.388 43.8 28.1845 43.8842 28.0345 44.0343C27.8845 44.1843 27.8002 44.3878 27.8002 44.6V45.4C27.8002 47.7008 30.0914 50.2 34.2002 50.2C38.309 50.2 40.6002 47.7008 40.6002 45.4V44.6C40.6002 44.3878 40.5159 44.1843 40.3659 44.0343C40.2159 43.8842 40.0124 43.8 39.8002 43.8ZM34.2002 31.8C35.3671 31.8 36.4863 32.2635 37.3115 33.0887C38.1366 33.9138 38.6002 35.033 38.6002 36.2C38.6002 37.3669 38.1366 38.4861 37.3115 39.3112C36.4863 40.1364 35.3671 40.6 34.2002 40.6C33.0332 40.6 31.9141 40.1364 31.0889 39.3112C30.2638 38.4861 29.8002 37.3669 29.8002 36.2C29.8002 35.033 30.2638 33.9138 31.0889 33.0887C31.9141 32.2635 33.0332 31.8 34.2002 31.8ZM48.6002 26.2C49.4072 26.2001 50.1844 26.5052 50.7761 27.0541C51.3677 27.603 51.7301 28.3552 51.7906 29.16L51.8002 29.4V32.6C51.8005 33.4073 51.4955 34.1849 50.9466 34.7768C50.3977 35.3688 49.6452 35.7314 48.8402 35.792L48.6002 35.8H46.1986L44.2818 38.36C43.4338 39.4896 41.7154 39.032 41.4386 37.7584L41.4114 37.5808L41.4002 37.4V35.696L41.2754 35.664C40.7 35.4902 40.1852 35.158 39.7899 34.7052C39.3946 34.2524 39.1347 33.6975 39.0402 33.104L39.0082 32.8384L39.0002 32.6V29.4C38.9999 28.5926 39.3048 27.815 39.8538 27.2231C40.4027 26.6311 41.1551 26.2685 41.9602 26.208L42.2002 26.2H48.6002ZM34.2002 33.4C33.8325 33.4 33.4684 33.4724 33.1287 33.6131C32.789 33.7538 32.4803 33.96 32.2203 34.2201C31.9603 34.4801 31.754 34.7887 31.6133 35.1284C31.4726 35.4681 31.4002 35.8322 31.4002 36.2C31.4002 36.5677 31.4726 36.9318 31.6133 37.2715C31.754 37.6112 31.9603 37.9198 32.2203 38.1799C32.4803 38.4399 32.789 38.6461 33.1287 38.7868C33.4684 38.9275 33.8325 39 34.2002 39C34.9428 39 35.655 38.705 36.1801 38.1799C36.7052 37.6547 37.0002 36.9426 37.0002 36.2C37.0002 35.4573 36.7052 34.7452 36.1801 34.2201C35.655 33.695 34.9428 33.4 34.2002 33.4ZM48.6002 27.8H42.2002C41.8083 27.8 41.4301 27.9439 41.1372 28.2043C40.8443 28.4647 40.6572 28.8235 40.6114 29.2128L40.6002 29.4V32.6C40.6002 32.9918 40.7441 33.3701 41.0045 33.6629C41.265 33.9558 41.6238 34.1429 42.013 34.1888L42.2002 34.2H43.0002V37.4L45.4002 34.2H48.6002C48.9921 34.1999 49.3703 34.056 49.6632 33.7956C49.956 33.5352 50.1431 33.1764 50.189 32.7872L50.2002 32.6V29.4C50.2001 29.0081 50.0563 28.6298 49.7959 28.337C49.5354 28.0441 49.1766 27.857 48.7874 27.8112L48.6002 27.8Z" fill="#208C0D"/>
</svg>
