<svg width="78" height="78" viewBox="0 0 78 78" fill="none" xmlns="http://www.w3.org/2000/svg">
<rect width="78" height="78" rx="39" fill="#F4E4FF"/>
<path d="M50.9997 33.6666C51.7069 33.6666 52.3852 33.9476 52.8853 34.4477C53.3854 34.9478 53.6663 35.626 53.6663 36.3333V41.6666C53.6663 42.3739 53.3854 43.0521 52.8853 43.5522C52.3852 44.0523 51.7069 44.3333 50.9997 44.3333H49.5837C49.2589 46.9111 48.0044 49.2818 46.0556 51.0003C44.1069 52.7188 41.5979 53.6669 38.9997 53.6666V51C41.1214 51 43.1562 50.1571 44.6565 48.6568C46.1568 47.1565 46.9997 45.1217 46.9997 42.9999V34.9999C46.9997 32.8782 46.1568 30.8434 44.6565 29.3431C43.1562 27.8428 41.1214 26.9999 38.9997 26.9999C36.8779 26.9999 34.8431 27.8428 33.3428 29.3431C31.8425 30.8434 30.9997 32.8782 30.9997 34.9999V44.3333H26.9997C26.2924 44.3333 25.6142 44.0523 25.1141 43.5522C24.614 43.0521 24.333 42.3739 24.333 41.6666V36.3333C24.333 35.626 24.614 34.9478 25.1141 34.4477C25.6142 33.9476 26.2924 33.6666 26.9997 33.6666H28.4157C28.741 31.0891 29.9958 28.719 31.9444 27.0008C33.8931 25.2827 36.4017 24.3347 38.9997 24.3347C41.5976 24.3347 44.1063 25.2827 46.0549 27.0008C48.0036 28.719 49.2583 31.0891 49.5837 33.6666H50.9997ZM33.3463 44.0466L34.7597 41.7853C36.0304 42.5815 37.5001 43.0025 38.9997 42.9999C40.4992 43.0025 41.969 42.5815 43.2397 41.7853L44.653 44.0466C42.9588 45.1083 40.9991 45.6699 38.9997 45.6666C37.0003 45.6699 35.0406 45.1083 33.3463 44.0466Z" fill="#6A0DAD"/>
</svg>
