<svg width="78" height="79" viewBox="0 0 78 79" fill="none" xmlns="http://www.w3.org/2000/svg">
<rect y="0.5" width="78" height="78" rx="39" fill="#F4E4FF"/>
<g clip-path="url(#clip0_1305_2450)">
<path d="M51 43.5H55V55.5H39V43.5H43V39.5H51V43.5ZM45 43.5H49V41.5H45V43.5ZM53 49.5H51V51.5H49V49.5H45V51.5H43V49.5H41V53.5H53V49.5ZM41 45.5V47.5H53V45.5H41ZM37 37.5C37 38.4688 36.7865 39.375 36.3594 40.2188C35.9323 41.0625 35.3229 41.7708 34.5312 42.3438C35 42.5833 35.4427 42.8594 35.8594 43.1719C36.276 43.4844 36.6562 43.8333 37 44.2188V49.5C37 48.6771 36.8438 47.901 36.5312 47.1719C36.2188 46.4427 35.7917 45.8073 35.25 45.2656C34.7083 44.724 34.0677 44.2917 33.3281 43.9688C32.5885 43.6458 31.8125 43.4896 31 43.5C30.1667 43.5 29.3906 43.6562 28.6719 43.9688C27.9531 44.2812 27.3177 44.7083 26.7656 45.25C26.2135 45.7917 25.7812 46.4323 25.4688 47.1719C25.1562 47.9115 25 48.6875 25 49.5H23C23 48.7396 23.1042 48.0052 23.3125 47.2969C23.5208 46.5885 23.8177 45.9167 24.2031 45.2812C24.5885 44.6458 25.0625 44.0833 25.625 43.5938C26.1875 43.1042 26.8021 42.6823 27.4688 42.3281C26.6875 41.7656 26.0833 41.0625 25.6562 40.2188C25.2292 39.375 25.0104 38.4688 25 37.5C25 36.6771 25.1562 35.901 25.4688 35.1719C25.7812 34.4427 26.2083 33.8073 26.75 33.2656C27.2917 32.724 27.9271 32.2917 28.6562 31.9688C29.3854 31.6458 30.1667 31.4896 31 31.5C31.75 31.5 32.4635 31.6302 33.1406 31.8906C33.8177 32.151 34.4375 32.5365 35 33.0469C35.3333 32.7448 35.7031 32.4792 36.1094 32.25C35.7552 31.8854 35.4844 31.4635 35.2969 30.9844C35.1094 30.5052 35.0104 30.0104 35 29.5C35 28.9479 35.1042 28.4323 35.3125 27.9531C35.5208 27.474 35.8073 27.0469 36.1719 26.6719C36.5365 26.2969 36.9583 26.0104 37.4375 25.8125C37.9167 25.6146 38.4375 25.5104 39 25.5C39.5521 25.5 40.0677 25.6042 40.5469 25.8125C41.026 26.0208 41.4531 26.3073 41.8281 26.6719C42.2031 27.0365 42.4896 27.4583 42.6875 27.9375C42.8854 28.4167 42.9896 28.9375 43 29.5C43 30.0104 42.9062 30.5052 42.7188 30.9844C42.5312 31.4635 42.2552 31.8854 41.8906 32.25C42.7552 32.7292 43.4583 33.375 44 34.1875C44.5417 33.375 45.2448 32.7292 46.1094 32.25C45.7552 31.8854 45.4844 31.4635 45.2969 30.9844C45.1094 30.5052 45.0104 30.0104 45 29.5C45 28.9479 45.1042 28.4323 45.3125 27.9531C45.5208 27.474 45.8073 27.0469 46.1719 26.6719C46.5365 26.2969 46.9583 26.0104 47.4375 25.8125C47.9167 25.6146 48.4375 25.5104 49 25.5C49.5521 25.5 50.0677 25.6042 50.5469 25.8125C51.026 26.0208 51.4531 26.3073 51.8281 26.6719C52.2031 27.0365 52.4896 27.4583 52.6875 27.9375C52.8854 28.4167 52.9896 28.9375 53 29.5C53 30.0104 52.9062 30.5052 52.7188 30.9844C52.5312 31.4635 52.2552 31.8854 51.8906 32.25C52.3698 32.5104 52.8021 32.8281 53.1875 33.2031C53.5729 33.5781 53.8958 33.9896 54.1562 34.4375C54.4167 34.8854 54.625 35.375 54.7812 35.9062C54.9375 36.4375 55.0104 36.9688 55 37.5H53C53 36.9479 52.8958 36.4323 52.6875 35.9531C52.4792 35.474 52.1927 35.0469 51.8281 34.6719C51.4635 34.2969 51.0417 34.0104 50.5625 33.8125C50.0833 33.6146 49.5625 33.5104 49 33.5C48.4479 33.5 47.9323 33.6042 47.4531 33.8125C46.974 34.0208 46.5469 34.3073 46.1719 34.6719C45.7969 35.0365 45.5104 35.4583 45.3125 35.9375C45.1146 36.4167 45.0104 36.9375 45 37.5H43C43 36.9479 42.8958 36.4323 42.6875 35.9531C42.4792 35.474 42.1927 35.0469 41.8281 34.6719C41.4635 34.2969 41.0417 34.0104 40.5625 33.8125C40.0833 33.6146 39.5625 33.5104 39 33.5C38.4896 33.5 37.9948 33.5938 37.5156 33.7812C37.0365 33.9688 36.6146 34.2448 36.25 34.6094C36.5 35.0469 36.6875 35.5104 36.8125 36C36.9375 36.4896 37 36.9896 37 37.5ZM49 27.5C48.7188 27.5 48.4583 27.5521 48.2188 27.6562C47.9792 27.7604 47.7708 27.901 47.5938 28.0781C47.4167 28.2552 47.2708 28.4688 47.1562 28.7188C47.0417 28.9688 46.9896 29.2292 47 29.5C47 29.7812 47.0521 30.0417 47.1562 30.2812C47.2604 30.5208 47.401 30.7292 47.5781 30.9062C47.7552 31.0833 47.9688 31.2292 48.2188 31.3438C48.4688 31.4583 48.7292 31.5104 49 31.5C49.2812 31.5 49.5417 31.4479 49.7812 31.3438C50.0208 31.2396 50.2292 31.099 50.4062 30.9219C50.5833 30.7448 50.7292 30.5312 50.8438 30.2812C50.9583 30.0312 51.0104 29.7708 51 29.5C51 29.2188 50.9479 28.9583 50.8438 28.7188C50.7396 28.4792 50.599 28.2708 50.4219 28.0938C50.2448 27.9167 50.0312 27.7708 49.7812 27.6562C49.5312 27.5417 49.2708 27.4896 49 27.5ZM39 27.5C38.7188 27.5 38.4583 27.5521 38.2188 27.6562C37.9792 27.7604 37.7708 27.901 37.5938 28.0781C37.4167 28.2552 37.2708 28.4688 37.1562 28.7188C37.0417 28.9688 36.9896 29.2292 37 29.5C37 29.7812 37.0521 30.0417 37.1562 30.2812C37.2604 30.5208 37.401 30.7292 37.5781 30.9062C37.7552 31.0833 37.9688 31.2292 38.2188 31.3438C38.4688 31.4583 38.7292 31.5104 39 31.5C39.2812 31.5 39.5417 31.4479 39.7812 31.3438C40.0208 31.2396 40.2292 31.099 40.4062 30.9219C40.5833 30.7448 40.7292 30.5312 40.8438 30.2812C40.9583 30.0312 41.0104 29.7708 41 29.5C41 29.2188 40.9479 28.9583 40.8438 28.7188C40.7396 28.4792 40.599 28.2708 40.4219 28.0938C40.2448 27.9167 40.0312 27.7708 39.7812 27.6562C39.5312 27.5417 39.2708 27.4896 39 27.5ZM31 41.5C31.5521 41.5 32.0677 41.3958 32.5469 41.1875C33.026 40.9792 33.4531 40.6927 33.8281 40.3281C34.2031 39.9635 34.4896 39.5417 34.6875 39.0625C34.8854 38.5833 34.9896 38.0625 35 37.5C35 36.9479 34.8958 36.4323 34.6875 35.9531C34.4792 35.474 34.1927 35.0469 33.8281 34.6719C33.4635 34.2969 33.0417 34.0104 32.5625 33.8125C32.0833 33.6146 31.5625 33.5104 31 33.5C30.4479 33.5 29.9323 33.6042 29.4531 33.8125C28.974 34.0208 28.5469 34.3073 28.1719 34.6719C27.7969 35.0365 27.5104 35.4583 27.3125 35.9375C27.1146 36.4167 27.0104 36.9375 27 37.5C27 38.0521 27.1042 38.5677 27.3125 39.0469C27.5208 39.526 27.8073 39.9531 28.1719 40.3281C28.5365 40.7031 28.9583 40.9896 29.4375 41.1875C29.9167 41.3854 30.4375 41.4896 31 41.5Z" fill="#6A0DAD"/>
</g>
<defs>
<clipPath id="clip0_1305_2450">
<rect width="32" height="32" fill="white" transform="translate(23 23.5)"/>
</clipPath>
</defs>
</svg>
