<svg width="48" height="48" viewBox="0 0 48 48" fill="none" xmlns="http://www.w3.org/2000/svg">
<rect width="48" height="48" rx="24" fill="white" fill-opacity="0.2"/>
<path fill-rule="evenodd" clip-rule="evenodd" d="M27.677 18.5024C27.7688 18.5535 27.8496 18.6221 27.9149 18.7044C27.9802 18.7867 28.0287 18.8811 28.0575 18.9821C28.0863 19.0831 28.095 19.1889 28.0829 19.2932C28.0709 19.3976 28.0384 19.4986 27.9873 19.5904L23.5442 27.5904C23.4931 27.6822 23.4244 27.7631 23.3421 27.8284C23.2598 27.8937 23.1655 27.9421 23.0644 27.9709C22.9634 27.9998 22.8577 28.0084 22.7533 27.9964C22.6489 27.9843 22.548 27.9519 22.4561 27.9008C22.3643 27.8497 22.2835 27.7811 22.2182 27.6988C22.1529 27.6165 22.1044 27.5221 22.0756 27.4211C22.0468 27.3201 22.0382 27.2143 22.0502 27.11C22.0622 27.0056 22.0947 26.9046 22.1457 26.8128L26.589 18.8128C26.64 18.721 26.7086 18.6401 26.791 18.5748C26.8733 18.5095 26.9676 18.4611 27.0687 18.4323C27.1697 18.4034 27.2754 18.3948 27.3798 18.4068C27.4842 18.4189 27.5851 18.4513 27.677 18.5024Z" fill="white"/>
<path fill-rule="evenodd" clip-rule="evenodd" d="M17.7761 23.1456C17.9087 22.9803 18.1013 22.8743 18.3119 22.8509C18.5225 22.8275 18.7337 22.8886 18.8993 23.0208L23.3441 26.576C23.5098 26.7086 23.6161 26.9016 23.6395 27.1126C23.6629 27.3235 23.6015 27.5351 23.4689 27.7008C23.3363 27.8665 23.1433 27.9727 22.9324 27.9962C22.7214 28.0196 22.5098 27.9582 22.3441 27.8256L17.9009 24.272C17.8188 24.2064 17.7505 24.1252 17.6998 24.0331C17.6491 23.9411 17.6171 23.8399 17.6055 23.7355C17.5939 23.631 17.603 23.5253 17.6323 23.4243C17.6615 23.3234 17.7104 23.2292 17.7761 23.1472" fill="white"/>
<path fill-rule="evenodd" clip-rule="evenodd" d="M14.7169 14.5232C14.4638 14.7753 14.2646 15.0762 14.1312 15.4076C13.9978 15.739 13.9331 16.094 13.9409 16.4512C13.9569 17.3312 13.7329 18.2624 13.4081 19.0688C13.0833 19.8768 12.5985 20.704 11.9777 21.3264C11.4809 21.8243 11.2018 22.499 11.2018 23.2024C11.2018 23.9058 11.4809 24.5805 11.9777 25.0784C13.1137 26.216 13.9073 28.0752 13.9409 29.6848C13.9535 30.3561 14.2209 30.9976 14.6888 31.4792C15.1567 31.9607 15.7902 32.2464 16.4609 32.2784C17.3409 32.3216 18.2673 32.5888 19.0801 32.9504C19.8913 33.3104 20.7105 33.8176 21.3329 34.44C21.8308 34.9368 22.5055 35.2158 23.2089 35.2158C23.9123 35.2158 24.587 34.9368 25.0849 34.44C25.7073 33.8176 26.5249 33.3104 27.3377 32.9488C28.1505 32.5888 29.0769 32.3216 29.9569 32.2784C30.6277 32.2468 31.2614 31.9612 31.7294 31.4796C32.1974 30.9979 32.4646 30.3563 32.4769 29.6848C32.5089 28.0752 33.3025 26.216 34.4401 25.0768C34.9364 24.5789 35.2151 23.9046 35.2151 23.2016C35.2151 22.4986 34.9364 21.8243 34.4401 21.3264C33.8177 20.704 33.3345 19.8768 33.0097 19.0704C32.6833 18.2624 32.4593 17.3296 32.4769 16.4512C32.4845 16.0939 32.4195 15.7388 32.2859 15.4074C32.1522 15.076 31.9526 14.7752 31.6993 14.5232C31.4376 14.2601 31.1233 14.0552 30.7771 13.9218C30.4308 13.7883 30.0603 13.7294 29.6897 13.7488C28.0961 13.8288 26.2129 13.1056 25.0849 11.9776C24.587 11.4808 23.9123 11.2017 23.2089 11.2017C22.5055 11.2017 21.8308 11.4808 21.3329 11.9776C20.2049 13.1056 18.3217 13.8288 16.7281 13.7488C16.3573 13.7292 15.9864 13.788 15.6399 13.9214C15.2933 14.0549 14.9788 14.2599 14.7169 14.5232ZM12.3409 16.48C12.3649 17.6928 11.7041 19.336 10.8449 20.1936C10.0481 20.9916 9.60059 22.0731 9.60059 23.2008C9.60059 24.3285 10.0481 25.41 10.8449 26.208C11.6929 27.0544 12.3169 28.52 12.3409 29.7152C12.3633 30.7744 12.7777 31.8272 13.5857 32.6352C14.3312 33.3822 15.3284 33.8243 16.3825 33.8752C17.6481 33.9392 19.3057 34.6736 20.2017 35.5712C20.9997 36.368 22.0812 36.8155 23.2089 36.8155C24.3366 36.8155 25.4181 36.368 26.2161 35.5712C27.1121 34.6736 28.7697 33.9392 30.0353 33.8752C31.0894 33.8243 32.0866 33.3822 32.8321 32.6352C33.6089 31.8595 34.0545 30.8128 34.0753 29.7152C34.1009 28.52 34.7249 27.0544 35.5713 26.208C36.3681 25.41 36.8156 24.3285 36.8156 23.2008C36.8156 22.0731 36.3681 20.9916 35.5713 20.1936C34.7137 19.336 34.0513 17.6928 34.0769 16.4816C34.0892 15.9087 33.9852 15.3393 33.7712 14.8077C33.5573 14.2761 33.2378 13.7935 32.8321 13.3888C32.4118 12.9674 31.9076 12.6392 31.3521 12.4256C30.7966 12.212 30.2024 12.1176 29.6081 12.1488C28.4657 12.2064 27.0241 11.6528 26.2161 10.8432C25.4181 10.0459 24.3361 9.59809 23.2081 9.59809C22.08 9.59809 20.9981 10.0459 20.2001 10.8432C19.3937 11.6528 17.9505 12.2064 16.8081 12.1488C16.214 12.1179 15.6201 12.2123 15.065 12.4259C14.5098 12.6396 14.0058 12.9676 13.5857 13.3888C13.1802 13.7933 12.8608 14.2757 12.6469 14.807C12.4329 15.3383 12.3288 15.9074 12.3409 16.48Z" fill="white"/>
</svg>
