<svg width="48" height="48" viewBox="0 0 48 48" fill="none" xmlns="http://www.w3.org/2000/svg">
<rect width="48" height="48" rx="24" fill="white" fill-opacity="0.2"/>
<path d="M14.1547 34.6667C13.5404 34.6667 13.028 34.4613 12.6173 34.0507C12.2067 33.64 12.0009 33.1271 12 32.512V19.488C12 18.8738 12.2058 18.3613 12.6173 17.9507C13.0289 17.54 13.5409 17.3342 14.1533 17.3333H20V15.4867C20 14.8733 20.2058 14.3609 20.6173 13.9493C21.0289 13.5378 21.5413 13.3324 22.1547 13.3333H25.8467C26.46 13.3333 26.9724 13.5387 27.384 13.9493C27.7956 14.36 28.0009 14.8724 28 15.4867V17.3333H33.8467C34.46 17.3333 34.972 17.5391 35.3827 17.9507C35.7933 18.3622 35.9991 18.8747 36 19.488V32.5133C36 33.1267 35.7942 33.6391 35.3827 34.0507C34.9711 34.4622 34.4591 34.6676 33.8467 34.6667H14.1547ZM14.1547 33.3333H33.8467C34.0511 33.3333 34.2391 33.248 34.4107 33.0773C34.5822 32.9067 34.6676 32.7182 34.6667 32.512V19.488C34.6667 19.2827 34.5813 19.0942 34.4107 18.9227C34.24 18.7511 34.052 18.6658 33.8467 18.6667H14.1533C13.9489 18.6667 13.7609 18.752 13.5893 18.9227C13.4178 19.0933 13.3324 19.2818 13.3333 19.488V32.5133C13.3333 32.7178 13.4187 32.9058 13.5893 33.0773C13.76 33.2489 13.948 33.3342 14.1533 33.3333M21.3333 17.3333H26.6667V15.4867C26.6667 15.2822 26.5813 15.0942 26.4107 14.9227C26.24 14.7511 26.052 14.6658 25.8467 14.6667H22.1533C21.9489 14.6667 21.7609 14.752 21.5893 14.9227C21.4178 15.0933 21.3324 15.2813 21.3333 15.4867V17.3333Z" fill="white"/>
</svg>
