<svg width="48" height="48" viewBox="0 0 48 48" fill="none" xmlns="http://www.w3.org/2000/svg">
<rect width="48" height="48" rx="24" fill="white" fill-opacity="0.2"/>
<path d="M24.3333 35.7893C24.2124 35.7893 24.0849 35.7782 23.9507 35.756C23.8164 35.7338 23.692 35.7004 23.5773 35.656C20.9524 34.656 18.8667 32.96 17.32 30.568C15.7733 28.176 15 25.5867 15 22.8V17.0893C15 16.6324 15.1302 16.2209 15.3907 15.8547C15.6502 15.4884 15.9867 15.2231 16.4 15.0587L23.58 12.392C23.8396 12.2978 24.0907 12.2507 24.3333 12.2507C24.576 12.2507 24.8276 12.2978 25.088 12.392L32.2667 15.0587C32.6791 15.224 33.0156 15.4893 33.276 15.8547C33.5364 16.2209 33.6667 16.6324 33.6667 17.0893V22.8C33.6667 25.5867 32.8933 28.176 31.3467 30.568C29.8 32.96 27.7147 34.656 25.0907 35.656C24.9742 35.7004 24.8493 35.7338 24.716 35.756C24.5827 35.7782 24.4551 35.7893 24.3333 35.7893ZM24.3333 34.5333C26.6444 33.8 28.5556 32.3333 30.0667 30.1333C31.5778 27.9333 32.3333 25.4889 32.3333 22.8V17.064C32.3333 16.8933 32.2862 16.7396 32.192 16.6027C32.0987 16.4658 31.9662 16.3636 31.7947 16.296L24.616 13.6293C24.5307 13.5938 24.4364 13.576 24.3333 13.576C24.2302 13.576 24.136 13.5938 24.0507 13.6293L16.872 16.296C16.7004 16.3636 16.568 16.4658 16.4747 16.6027C16.3804 16.7396 16.3333 16.8933 16.3333 17.064V22.8C16.3333 25.4889 17.0889 27.9333 18.6 30.1333C20.1111 32.3333 22.0222 33.8 24.3333 34.5333Z" fill="white"/>
</svg>
