<svg width="78" height="79" viewBox="0 0 78 79" fill="none" xmlns="http://www.w3.org/2000/svg">
<rect y="0.5" width="78" height="78" rx="39" fill="#E5FFE0"/>
<path d="M50.0001 42.3667V48.0333C50.0001 49.492 48.9507 50.748 47.5041 50.94C44.7214 51.3093 41.8827 51.5 39.0001 51.5C36.1174 51.5 33.2787 51.3093 30.4961 50.94C29.0494 50.748 28.0001 49.492 28.0001 48.0333V42.3667M50.0001 42.3667C50.3167 42.0915 50.57 41.7511 50.7426 41.3688C50.9152 40.9866 51.0031 40.5714 51.0001 40.152V35.108C51.0001 33.6667 49.9761 32.4213 48.5507 32.208C47.0405 31.9818 45.5226 31.8097 44.0001 31.692M50.0001 42.3667C49.7414 42.5867 49.4401 42.76 49.1027 42.8733C45.8442 43.954 42.4331 44.5032 39.0001 44.5C35.5671 44.5032 32.1559 43.954 28.8974 42.8733C28.5682 42.7644 28.2634 42.5923 28.0001 42.3667M28.0001 42.3667C27.6835 42.0915 27.4302 41.7511 27.2575 41.3688C27.0849 40.9866 26.9971 40.5714 27.0001 40.152V35.108C27.0001 33.6667 28.0241 32.4213 29.4494 32.208C30.9597 31.9818 32.4775 31.8097 34.0001 31.692M44.0001 31.692V30.5C44.0001 29.7044 43.684 28.9413 43.1214 28.3787C42.5588 27.8161 41.7957 27.5 41.0001 27.5H37.0001C36.2044 27.5 35.4414 27.8161 34.8788 28.3787C34.3161 28.9413 34.0001 29.7044 34.0001 30.5V31.692M44.0001 31.692C40.6716 31.4365 37.3285 31.4365 34.0001 31.692M39.0001 40.5H39.0107V40.5107H39.0001V40.5Z" stroke="#208C0D" stroke-width="2" stroke-linecap="round" stroke-linejoin="round"/>
</svg>
