<svg width="78" height="79" viewBox="0 0 78 79" fill="none" xmlns="http://www.w3.org/2000/svg">
<rect y="0.5" width="78" height="78" rx="39" fill="#F4E4FF"/>
<path d="M25.667 39.5C25.667 34.472 25.667 31.9574 27.2297 30.396C28.7923 28.8347 31.3057 28.8334 36.3337 28.8334H41.667C46.695 28.8334 49.2097 28.8334 50.771 30.396C52.3323 31.9587 52.3337 34.472 52.3337 39.5V42.1667C52.3337 47.1947 52.3337 49.7094 50.771 51.2707C49.2083 52.832 46.695 52.8334 41.667 52.8334H36.3337C31.3057 52.8334 28.791 52.8334 27.2297 51.2707C25.6683 49.708 25.667 47.1947 25.667 42.1667V39.5Z" stroke="#6A0DAD" stroke-width="2"/>
<path d="M32.334 28.8334V26.8334M45.6673 28.8334V26.8334M26.334 35.5H51.6673" stroke="#6A0DAD" stroke-width="2" stroke-linecap="round"/>
<path d="M47 46.1667C47 46.5203 46.8595 46.8594 46.6095 47.1095C46.3594 47.3595 46.0203 47.5 45.6667 47.5C45.313 47.5 44.9739 47.3595 44.7239 47.1095C44.4738 46.8594 44.3333 46.5203 44.3333 46.1667C44.3333 45.813 44.4738 45.4739 44.7239 45.2239C44.9739 44.9738 45.313 44.8333 45.6667 44.8333C46.0203 44.8333 46.3594 44.9738 46.6095 45.2239C46.8595 45.4739 47 45.813 47 46.1667ZM47 40.8333C47 41.187 46.8595 41.5261 46.6095 41.7761C46.3594 42.0262 46.0203 42.1667 45.6667 42.1667C45.313 42.1667 44.9739 42.0262 44.7239 41.7761C44.4738 41.5261 44.3333 41.187 44.3333 40.8333C44.3333 40.4797 44.4738 40.1406 44.7239 39.8905C44.9739 39.6405 45.313 39.5 45.6667 39.5C46.0203 39.5 46.3594 39.6405 46.6095 39.8905C46.8595 40.1406 47 40.4797 47 40.8333ZM40.3333 46.1667C40.3333 46.5203 40.1929 46.8594 39.9428 47.1095C39.6928 47.3595 39.3536 47.5 39 47.5C38.6464 47.5 38.3072 47.3595 38.0572 47.1095C37.8071 46.8594 37.6667 46.5203 37.6667 46.1667C37.6667 45.813 37.8071 45.4739 38.0572 45.2239C38.3072 44.9738 38.6464 44.8333 39 44.8333C39.3536 44.8333 39.6928 44.9738 39.9428 45.2239C40.1929 45.4739 40.3333 45.813 40.3333 46.1667ZM40.3333 40.8333C40.3333 41.187 40.1929 41.5261 39.9428 41.7761C39.6928 42.0262 39.3536 42.1667 39 42.1667C38.6464 42.1667 38.3072 42.0262 38.0572 41.7761C37.8071 41.5261 37.6667 41.187 37.6667 40.8333C37.6667 40.4797 37.8071 40.1406 38.0572 39.8905C38.3072 39.6405 38.6464 39.5 39 39.5C39.3536 39.5 39.6928 39.6405 39.9428 39.8905C40.1929 40.1406 40.3333 40.4797 40.3333 40.8333ZM33.6667 46.1667C33.6667 46.5203 33.5262 46.8594 33.2761 47.1095C33.0261 47.3595 32.687 47.5 32.3333 47.5C31.9797 47.5 31.6406 47.3595 31.3905 47.1095C31.1405 46.8594 31 46.5203 31 46.1667C31 45.813 31.1405 45.4739 31.3905 45.2239C31.6406 44.9738 31.9797 44.8333 32.3333 44.8333C32.687 44.8333 33.0261 44.9738 33.2761 45.2239C33.5262 45.4739 33.6667 45.813 33.6667 46.1667ZM33.6667 40.8333C33.6667 41.187 33.5262 41.5261 33.2761 41.7761C33.0261 42.0262 32.687 42.1667 32.3333 42.1667C31.9797 42.1667 31.6406 42.0262 31.3905 41.7761C31.1405 41.5261 31 41.187 31 40.8333C31 40.4797 31.1405 40.1406 31.3905 39.8905C31.6406 39.6405 31.9797 39.5 32.3333 39.5C32.687 39.5 33.0261 39.6405 33.2761 39.8905C33.5262 40.1406 33.6667 40.4797 33.6667 40.8333Z" fill="#6A0DAD"/>
</svg>
