<svg width="64" height="64" viewBox="0 0 64 64" fill="none" xmlns="http://www.w3.org/2000/svg">
<path d="M64 32C64 14.3269 49.6731 0 32 0C14.3269 0 0 14.3269 0 32C0 49.6731 14.3269 64 32 64C49.6731 64 64 49.6731 64 32Z" fill="#FCFCFC" fill-opacity="0.05"/>
<path d="M32 1C14.8792 1 1 14.8792 1 32C1 49.1208 14.8792 63 32 63C49.1208 63 63 49.1208 63 32C63 14.8792 49.1208 1 32 1Z" stroke="#D2D6DB" stroke-opacity="0.5" stroke-width="2"/>
<path d="M22.6663 32H41.333" stroke="white" stroke-opacity="0.5" stroke-width="3" stroke-linecap="round" stroke-linejoin="round"/>
<path d="M31.9997 41.3334L41.333 32.0001L31.9997 22.6667" stroke="white" stroke-opacity="0.5" stroke-width="3" stroke-linecap="round" stroke-linejoin="round"/>
</svg>
