<svg width="20" height="21" viewBox="0 0 20 21" fill="none" xmlns="http://www.w3.org/2000/svg">
<g clip-path="url(#clip0_1382_2890)">
<path d="M16.6673 5.39062L7.50065 14.5573L3.33398 10.3906" stroke="white" stroke-linecap="round" stroke-linejoin="round"/>
<mask id="path-2-inside-1_1382_2890" fill="white">
<path d="M16.6673 5.72388L7.50065 14.8905L3.33398 10.7239"/>
</mask>
<path d="M17.0209 6.07743C17.2161 5.88217 17.2161 5.56559 17.0209 5.37032C16.8256 5.17506 16.509 5.17506 16.3138 5.37032L17.0209 6.07743ZM7.50065 14.8905L7.1471 15.2441C7.24087 15.3379 7.36804 15.3905 7.50065 15.3905C7.63326 15.3905 7.76044 15.3379 7.8542 15.2441L7.50065 14.8905ZM3.68754 10.3703C3.49228 10.1751 3.17569 10.1751 2.98043 10.3703C2.78517 10.5656 2.78517 10.8822 2.98043 11.0774L3.68754 10.3703ZM16.6673 5.72388L16.3138 5.37032L7.1471 14.537L7.50065 14.8905L7.8542 15.2441L17.0209 6.07743L16.6673 5.72388ZM7.50065 14.8905L7.8542 14.537L3.68754 10.3703L3.33398 10.7239L2.98043 11.0774L7.1471 15.2441L7.50065 14.8905Z" fill="white" mask="url(#path-2-inside-1_1382_2890)"/>
</g>
<defs>
<clipPath id="clip0_1382_2890">
<rect width="20" height="20" fill="white" transform="translate(0 0.390625)"/>
</clipPath>
</defs>
</svg>
