<svg width="78" height="79" viewBox="0 0 78 79" fill="none" xmlns="http://www.w3.org/2000/svg">
<rect y="0.5" width="78" height="78" rx="39" fill="#F4E4FF"/>
<g clip-path="url(#clip0_1305_2689)">
<path d="M31 38.9756V47.5H39.5244L37.7467 45.7223H32.7778V40.7534L31 38.9756Z" fill="#6A0DAD"/>
<path d="M53.9951 52.2022L51.444 49.6155V51.9444H26.5551V48.2555H28.3329V46.8333H26.5551V40.9222H28.3329V39.4999H26.5551V33.8111H28.3329V32.3888H26.5551V27.4199L40.724 41.5088V39.0022L26.2974 24.6466C26.173 24.5213 26.0142 24.4358 25.8411 24.401C25.668 24.3663 25.4884 24.3839 25.3254 24.4516C25.1623 24.5193 25.0231 24.6341 24.9255 24.7812C24.8279 24.9283 24.7763 25.1012 24.7774 25.2777V52.8333C24.7774 53.069 24.871 53.2951 25.0377 53.4618C25.2044 53.6285 25.4305 53.7222 25.6662 53.7222H53.364C53.5406 53.7232 53.7134 53.6716 53.8606 53.574C54.0077 53.4764 54.1224 53.3372 54.1901 53.1742C54.2578 53.0111 54.2754 52.8316 54.2407 52.6585C54.206 52.4853 54.1205 52.3265 53.9951 52.2022Z" fill="#6A0DAD"/>
<path d="M44.3325 50.1666H47.888C48.3595 50.1666 48.8117 49.9793 49.1451 49.6459C49.4785 49.3125 49.6658 48.8603 49.6658 48.3888V31.2333L47.6214 27.4733C47.4632 27.1994 47.2349 26.9726 46.9599 26.8163C46.6849 26.6601 46.3732 26.58 46.0569 26.5844C45.7335 26.587 45.4169 26.6777 45.1412 26.8469C44.8655 27.016 44.6412 27.2572 44.4925 27.5444L42.5547 31.2511V48.3888C42.5547 48.8603 42.742 49.3125 43.0754 49.6459C43.4088 49.9793 43.861 50.1666 44.3325 50.1666ZM44.3325 31.6777L46.0569 28.3266L47.888 31.6866V44.8333H44.3325V31.6777ZM44.3325 46.2822H47.888V48.4511H44.3325V46.2822Z" fill="#6A0DAD"/>
</g>
<defs>
<clipPath id="clip0_1305_2689">
<rect width="32" height="32" fill="white" transform="translate(23 23.5)"/>
</clipPath>
</defs>
</svg>
