<svg width="78" height="79" viewBox="0 0 78 79" fill="none" xmlns="http://www.w3.org/2000/svg">
<rect y="0.5" width="78" height="78" rx="39" fill="#E5FFE0"/>
<path d="M44.5787 27.1666H33.4214C32.0907 27.1666 31.0107 28.2773 31.0107 29.6466V49.3533C31.0107 50.7226 32.0907 51.8333 33.4214 51.8333H44.5787C45.9094 51.8333 46.9894 50.7226 46.9894 49.3533V29.6466C46.9894 28.2773 45.9094 27.1666 44.5787 27.1666Z" stroke="#208C0D" stroke-width="2" stroke-linecap="round" stroke-linejoin="round"/>
<path d="M36.3379 30.5293H41.6632M39.0006 48.5306C39.095 48.5365 39.1897 48.523 39.2788 48.4908C39.3678 48.4587 39.4494 48.4087 39.5184 48.3439C39.5873 48.279 39.6423 48.2008 39.6799 48.1139C39.7175 48.027 39.7369 47.9333 39.7369 47.8386C39.7369 47.744 39.7175 47.6503 39.6799 47.5634C39.6423 47.4765 39.5873 47.3982 39.5184 47.3334C39.4494 47.2686 39.3678 47.2186 39.2788 47.1864C39.1897 47.1543 39.095 47.1408 39.0006 47.1466C38.8245 47.1576 38.6591 47.2352 38.5383 47.3638C38.4175 47.4924 38.3502 47.6622 38.3502 47.8386C38.3502 48.0151 38.4175 48.1849 38.5383 48.3135C38.6591 48.442 38.8245 48.5197 39.0006 48.5306Z" stroke="#208C0D" stroke-width="2" stroke-linecap="round" stroke-linejoin="round"/>
</svg>
