<svg width="125" height="18" viewBox="0 0 125 18" fill="none" xmlns="http://www.w3.org/2000/svg">
<g clip-path="url(#clip0_14714_43465)">
<path fill-rule="evenodd" clip-rule="evenodd" d="M3.10156 17.1231L5.71903 17.1864L5.69465 14.5813L12.4546 14.5781C12.1304 13.6054 11.411 11.8524 10.2612 11.8524H5.70041L5.69731 7.81488C6.74964 7.93234 8.05813 8.60236 8.84703 9.09012C11.6336 10.813 13.5838 13.5772 13.9688 17.1801H16.4759C16.0763 12.0735 12.6622 7.81887 8.41473 6.05236C7.27197 5.57711 4.50562 4.78124 3.10178 5.05952L3.10156 17.1231V17.1231Z" fill="white"/>
<path fill-rule="evenodd" clip-rule="evenodd" d="M11.4283 2.62741C12.5975 2.66172 13.5379 3.68577 13.8838 4.59307C14.5236 6.27106 13.5657 7.17534 13.0528 8.07954C13.4869 8.44611 14.3346 9.44166 14.6276 9.96231C16.1273 9.3031 18.4996 4.71098 14.6786 1.25975C12.5772 -0.638225 7.06781 0.22856 3.14341 0.0322425L3.13477 2.45671C4.15682 2.45671 11.1713 2.24373 11.4284 2.62746L11.4283 2.62741Z" fill="#7A4791"/>
<path d="M36.3992 6.63352C36.3992 3.76126 34.3027 2.08398 30.6546 2.08398H24.6794L21.7441 16.76H25.1616L25.9793 12.6507H28.8726L31.1788 16.76H34.7639L32.2062 12.2313C34.8268 11.4137 36.3993 9.40098 36.3993 6.63352H36.3992ZM29.3966 9.94607H26.5034L27.5307 4.85145H30.2143C31.9545 4.85145 32.9609 5.52234 32.9609 6.94801C32.9609 8.89779 31.64 9.94607 29.3967 9.94607H29.3966Z" fill="#F2D4FF"/>
<path d="M49.1892 10.2814C49.1892 7.26237 47.1136 5.3125 43.822 5.3125C39.9013 5.3125 37.1758 8.10096 37.1758 11.8748C37.1758 14.9359 39.4191 16.9275 42.9414 16.9275C44.6606 16.9275 46.3588 16.4662 47.6587 15.418L46.2959 13.2586C45.5202 13.9295 44.43 14.3069 43.2769 14.3069C41.4109 14.3069 40.4675 13.5311 40.3626 12.0006H49.0005C49.1053 11.4765 49.1892 10.8894 49.1892 10.2814ZM43.6752 7.76556C45.1848 7.76556 46.1911 8.60415 46.1911 10.0927H40.5932C41.0335 8.68805 42.1027 7.76556 43.6752 7.76556Z" fill="#F2D4FF"/>
<path d="M50.1113 16.7597H53.382L56.4849 1.20312H53.2143L50.1113 16.7597Z" fill="#F2D4FF"/>
<path d="M60.8456 3.9079C62.1455 3.9079 63.0261 3.09022 63.0261 1.89514C63.0261 0.972654 62.2503 0.259766 61.0972 0.259766C59.7973 0.259766 58.9377 1.11936 58.9377 2.20963C58.9377 3.15303 59.6925 3.9079 60.8456 3.9079ZM56.4219 16.7599H59.6715L61.9149 5.48038H58.6651L56.4219 16.7599Z" fill="#F2D4FF"/>
<path d="M74.6627 16.76H76.2142L72.4404 2.08398H70.9099L61.2656 16.76H62.9429L65.4798 12.8393H73.6774L74.6628 16.76H74.6627ZM66.2765 11.5814L71.3921 3.65636L73.3839 11.5814H66.2765Z" fill="white"/>
<path d="M81.4327 16.8651C84.3679 16.8651 86.3177 15.6071 86.3177 13.4231C86.3177 9.75062 80.0699 11.4908 80.0699 8.93651C80.0699 7.74143 81.223 6.92732 83.2567 6.92732C84.3889 6.92732 85.6259 7.21734 86.4854 7.86732L87.1144 6.67573C86.2758 6.04674 84.7873 5.64844 83.3825 5.64844C80.4892 5.64844 78.6023 6.99022 78.6023 9.08331C78.6023 12.8152 84.8501 11.0925 84.8501 13.5909C84.8501 14.8314 83.697 15.5652 81.5794 15.5652C80.0699 15.5652 78.6023 15.083 77.7637 14.3492L77.0508 15.5233C77.9104 16.2991 79.6296 16.8652 81.4326 16.8652L81.4327 16.8651Z" fill="white"/>
<path d="M91.6866 16.8651C94.6218 16.8651 96.5716 15.6071 96.5716 13.4231C96.5716 9.75062 90.3238 11.4908 90.3238 8.93651C90.3238 7.74143 91.4769 6.92732 93.5106 6.92732C94.6428 6.92732 95.8798 7.21734 96.7393 7.86732L97.3683 6.67573C96.5297 6.04674 95.0412 5.64844 93.6364 5.64844C90.7431 5.64844 88.8562 6.99022 88.8562 9.08331C88.8562 12.8152 95.104 11.0925 95.104 13.5909C95.104 14.8314 93.9509 15.5652 91.8333 15.5652C90.3238 15.5652 88.8562 15.083 88.0176 14.3492L87.3047 15.5233C88.1643 16.2991 89.8835 16.8652 91.6865 16.8652L91.6866 16.8651Z" fill="white"/>
<path d="M102.295 3.32069C102.966 3.32069 103.469 2.8175 103.469 2.14661C103.469 1.64342 103.028 1.20312 102.441 1.20312C101.77 1.20312 101.288 1.70632 101.288 2.33531C101.288 2.8594 101.708 3.32069 102.295 3.32069H102.295ZM98.7305 16.7598H100.219L102.4 5.73185H100.911L98.7305 16.7598Z" fill="white"/>
<path d="M107.579 16.8651C110.514 16.8651 112.464 15.6071 112.464 13.4231C112.464 9.75062 106.216 11.4908 106.216 8.93651C106.216 7.74143 107.369 6.92732 109.403 6.92732C110.535 6.92732 111.772 7.21734 112.632 7.86732L113.261 6.67573C112.422 6.04674 110.934 5.64844 109.529 5.64844C106.636 5.64844 104.749 6.99022 104.749 9.08331C104.749 12.8152 110.997 11.0925 110.997 13.5909C110.997 14.8314 109.843 15.5652 107.726 15.5652C106.216 15.5652 104.749 15.083 103.91 14.3492L103.197 15.5233C104.057 16.2991 105.776 16.8652 107.579 16.8652L107.579 16.8651Z" fill="white"/>
<path d="M118.292 6.98926H121.646L121.898 5.73138H118.543L119.026 3.32031H117.537L117.055 5.73138H115.084L114.854 6.98926H116.803L115.524 13.4887C115.462 13.7822 115.441 14.0757 115.441 14.3483C115.441 15.9206 116.468 16.8641 118.124 16.8641C118.963 16.8641 119.885 16.6754 120.577 16.1512L120.221 15.0191C119.718 15.3964 119.131 15.5851 118.522 15.5851C117.453 15.5851 116.929 15.061 116.929 14.1176C116.929 13.9079 116.971 13.6773 117.013 13.4257L118.292 6.98917V6.98926Z" fill="white"/>
</g>
<defs>
<clipPath id="clip0_14714_43465">
<rect width="125" height="17.1857" fill="white"/>
</clipPath>
</defs>
</svg>
