<svg width="78" height="78" viewBox="0 0 78 78" fill="none" xmlns="http://www.w3.org/2000/svg">
<rect width="78" height="78" rx="39" fill="#E5FFE0"/>
<path fill-rule="evenodd" clip-rule="evenodd" d="M33.131 28.9827C33.487 27.236 35.0417 26 36.8217 26H41.179C42.959 26 44.5123 27.236 44.8697 28.9827C44.909 29.175 45.012 29.3485 45.1619 29.4752C45.3119 29.602 45.5001 29.6746 45.6963 29.6813H45.7403C47.611 29.764 49.0483 29.9933 50.2483 30.7813C51.0043 31.2773 51.655 31.9147 52.1617 32.66C52.7923 33.5853 53.0697 34.6493 53.203 35.9347C53.3337 37.192 53.3337 38.7667 53.3337 40.7613V40.8747C53.3337 42.8693 53.3337 44.4453 53.203 45.7013C53.0697 46.9867 52.7923 48.0507 52.1617 48.9773C51.6522 49.7221 51.0023 50.3603 50.2483 50.856C49.311 51.4707 48.235 51.7427 46.931 51.872C45.6537 52 44.0523 52 42.0177 52H35.983C33.9483 52 32.347 52 31.0697 51.872C29.7657 51.7427 28.6897 51.472 27.7523 50.856C26.9982 50.3599 26.3483 49.7212 25.839 48.976C25.2083 48.0507 24.931 46.9867 24.7977 45.7013C24.667 44.4453 24.667 42.8693 24.667 40.8747V40.7613C24.667 38.7667 24.667 37.192 24.7977 35.9347C24.931 34.6493 25.2083 33.5853 25.839 32.66C26.3483 31.9148 26.9982 31.2761 27.7523 30.78C28.9523 29.9933 30.3897 29.764 32.2603 29.6827L32.283 29.6813H32.3043C32.5005 29.6746 32.6888 29.602 32.8387 29.4752C32.9887 29.3485 33.0916 29.175 33.131 28.9827ZM36.8217 28C35.9683 28 35.2523 28.5907 35.091 29.3813C34.831 30.6613 33.695 31.6693 32.3283 31.6813C30.531 31.7613 29.5683 31.9813 28.8483 32.4533C28.3143 32.8052 27.8537 33.2576 27.4923 33.7853C27.1243 34.3253 26.903 35.0173 26.7857 36.1413C26.6683 37.2827 26.667 38.7547 26.667 40.8187C26.667 42.8827 26.667 44.3533 26.787 45.4947C26.903 46.6187 27.1243 47.3107 27.4937 47.852C27.851 48.3773 28.311 48.8307 28.8497 49.184C29.4057 49.548 30.1177 49.768 31.2683 49.8827C32.4337 49.9987 33.935 50 36.0377 50H41.963C44.0643 50 45.5657 50 46.7323 49.8827C47.883 49.768 48.595 49.5493 49.151 49.184C49.6897 48.8307 50.151 48.3773 50.5083 47.8507C50.8763 47.3107 51.0977 46.6187 51.215 45.4947C51.3323 44.3533 51.3337 42.8813 51.3337 40.8187C51.3337 38.756 51.3337 37.2827 51.2137 36.1413C51.0977 35.0173 50.8763 34.3253 50.507 33.7853C50.1457 33.2572 49.6852 32.8043 49.151 32.452C48.4337 31.9813 47.471 31.7613 45.671 31.6813C44.3057 31.668 43.1697 30.6627 42.9097 29.3813C42.8243 28.987 42.6055 28.6343 42.2902 28.3826C41.9749 28.1309 41.5824 27.9958 41.179 28H36.8217ZM39.0003 37.3333C38.2047 37.3333 37.4416 37.6494 36.879 38.212C36.3164 38.7746 36.0003 39.5377 36.0003 40.3333C36.0003 41.129 36.3164 41.892 36.879 42.4547C37.4416 43.0173 38.2047 43.3333 39.0003 43.3333C39.796 43.3333 40.559 43.0173 41.1216 42.4547C41.6843 41.892 42.0003 41.129 42.0003 40.3333C42.0003 39.5377 41.6843 38.7746 41.1216 38.212C40.559 37.6494 39.796 37.3333 39.0003 37.3333ZM34.0003 40.3333C34.0003 39.0073 34.5271 37.7355 35.4648 36.7978C36.4025 35.8601 37.6742 35.3333 39.0003 35.3333C40.3264 35.3333 41.5982 35.8601 42.5359 36.7978C43.4735 37.7355 44.0003 39.0073 44.0003 40.3333C44.0003 41.6594 43.4735 42.9312 42.5359 43.8689C41.5982 44.8065 40.3264 45.3333 39.0003 45.3333C37.6742 45.3333 36.4025 44.8065 35.4648 43.8689C34.5271 42.9312 34.0003 41.6594 34.0003 40.3333ZM46.0003 36.3333C46.0003 36.0681 46.1057 35.8138 46.2932 35.6262C46.4808 35.4387 46.7351 35.3333 47.0003 35.3333H48.3337C48.5989 35.3333 48.8532 35.4387 49.0408 35.6262C49.2283 35.8138 49.3337 36.0681 49.3337 36.3333C49.3337 36.5985 49.2283 36.8529 49.0408 37.0404C48.8532 37.228 48.5989 37.3333 48.3337 37.3333H47.0003C46.7351 37.3333 46.4808 37.228 46.2932 37.0404C46.1057 36.8529 46.0003 36.5985 46.0003 36.3333Z" fill="#208C0D"/>
</svg>
