<svg width="78" height="78" viewBox="0 0 78 78" fill="none" xmlns="http://www.w3.org/2000/svg">
<rect width="78" height="78" rx="39" fill="#E5FFE0"/>
<path d="M45.661 35.0173H45.6717M45.6717 32.3453V29.0066M33.0023 52.3333H29.2903C28.8597 52.3333 28.4263 52.272 28.0303 52.1026C26.7423 51.5493 26.0877 50.8173 25.7837 50.36C25.7012 50.2333 25.6606 50.0838 25.6678 49.9328C25.675 49.7818 25.7295 49.6369 25.8237 49.5186C27.317 47.5346 30.7783 46.3373 33.0023 46.3373M33.009 52.3333H36.7197C37.1517 52.3333 37.5837 52.272 37.9797 52.1026C39.269 51.5493 39.9223 50.8173 40.2277 50.36C40.3102 50.2333 40.3507 50.0838 40.3435 49.9328C40.3363 49.7818 40.2818 49.6369 40.1877 49.5186C38.6943 47.5346 35.233 46.3373 33.009 46.3373M52.333 32.056C52.333 35.584 49.3463 38.4453 45.661 38.4453C45.2272 38.4453 44.797 38.4053 44.3703 38.3253C44.0637 38.268 43.9117 38.24 43.8037 38.256C43.697 38.272 43.545 38.352 43.2437 38.5146C42.3805 38.9748 41.3871 39.1294 40.425 38.9533C40.7903 38.5026 41.0383 37.9626 41.149 37.384C41.2157 37.0306 41.0503 36.6866 40.8023 36.4346C39.6443 35.2712 38.9926 33.6975 38.989 32.056C38.989 28.528 41.9757 25.6666 45.661 25.6666C49.3463 25.6666 52.333 28.528 52.333 32.056ZM36.713 39.3853C36.7116 40.3665 36.3206 41.307 35.6261 42C34.9315 42.6931 33.9902 43.082 33.009 43.0813C32.5229 43.082 32.0415 42.987 31.5922 42.8016C31.1428 42.6162 30.7344 42.3442 30.3902 42.001C30.046 41.6578 29.7728 41.2501 29.5861 40.8013C29.3995 40.3525 29.303 39.8714 29.3023 39.3853C29.3029 38.8991 29.3992 38.4178 29.5857 37.9688C29.7723 37.5199 30.0455 37.1121 30.3897 36.7688C30.7339 36.4254 31.1424 36.1532 31.5918 35.9678C32.0413 35.7823 32.5228 35.6873 33.009 35.688C33.9904 35.6873 34.932 36.0764 35.6265 36.7697C36.3211 37.463 36.7119 38.4039 36.713 39.3853Z" stroke="#208C0D" stroke-width="2" stroke-linecap="round" stroke-linejoin="round"/>
</svg>
