<svg width="78" height="78" viewBox="0 0 78 78" fill="none" xmlns="http://www.w3.org/2000/svg">
<rect width="78" height="78" rx="39" fill="#E5FFE0"/>
<path fill-rule="evenodd" clip-rule="evenodd" d="M38.93 24.6666H39.0687C40.2673 24.6666 41.266 24.6666 42.058 24.7733C42.8953 24.8853 43.6514 25.1333 44.258 25.74C44.866 26.348 45.114 27.104 45.226 27.94C45.306 28.5266 45.326 29.2253 45.3314 30.0333C46.1954 30.0613 46.966 30.1133 47.6514 30.204C49.214 30.4146 50.4793 30.8573 51.478 31.8546C52.4753 32.8533 52.918 34.1186 53.1287 35.6813C53.3327 37.2013 53.3327 39.1413 53.3327 41.592V41.7413C53.3327 44.192 53.3327 46.1333 53.1287 47.652C52.918 49.2146 52.4753 50.48 51.478 51.4786C50.4793 52.476 49.214 52.9186 47.6514 53.1293C46.1313 53.3333 44.1913 53.3333 41.7407 53.3333H36.258C33.8073 53.3333 31.866 53.3333 30.3473 53.1293C28.7847 52.9186 27.5193 52.476 26.5207 51.4786C25.5233 50.48 25.0807 49.2146 24.87 47.652C24.666 46.132 24.666 44.192 24.666 41.7413V41.592C24.666 39.1413 24.666 37.2 24.87 35.6813C25.0807 34.1186 25.5233 32.8533 26.5207 31.8546C27.5193 30.8573 28.7847 30.4146 30.3473 30.204C31.1175 30.1096 31.8917 30.0526 32.6673 30.0333C32.6727 29.2253 32.694 28.5266 32.7727 27.94C32.8847 27.104 33.1327 26.348 33.7393 25.74C34.3474 25.1333 35.1033 24.8866 35.9393 24.7733C36.7327 24.6666 37.7327 24.6666 38.93 24.6666ZM34.6687 30.0026C35.1727 30 35.7025 29.9991 36.258 30H41.7407C42.2962 30 42.826 30.0008 43.33 30.0026C43.3247 29.2426 43.306 28.6693 43.2447 28.2066C43.1607 27.592 43.018 27.328 42.8447 27.1546C42.6713 26.9813 42.4073 26.8386 41.7913 26.7546C41.1487 26.6693 40.2847 26.6666 38.9993 26.6666C37.714 26.6666 36.85 26.6693 36.206 26.756C35.5913 26.8386 35.3273 26.9813 35.154 27.156C34.9807 27.3306 34.838 27.592 34.754 28.2066C34.6927 28.668 34.674 29.2413 34.6687 30.0026ZM30.6127 32.1866C29.2713 32.3666 28.498 32.7053 27.9327 33.2693C27.37 33.8333 27.0313 34.6066 26.8513 35.948C26.6673 37.3173 26.6647 39.124 26.6647 41.6666C26.6647 44.2093 26.6673 46.016 26.8513 47.3866C27.0313 48.7266 27.37 49.5 27.934 50.064C28.498 50.628 29.2713 50.9666 30.6127 51.1466C31.9833 51.3306 33.7887 51.3333 36.3313 51.3333H41.6647C44.2073 51.3333 46.014 51.3306 47.3847 51.1466C48.7247 50.9666 49.498 50.628 50.062 50.064C50.626 49.5 50.9647 48.7266 51.1447 47.3853C51.3287 46.016 51.3314 44.2093 51.3314 41.6666C51.3314 39.124 51.3287 37.3186 51.1447 35.9466C50.9647 34.6066 50.626 33.8333 50.062 33.2693C49.498 32.7053 48.7247 32.3666 47.3834 32.1866C46.014 32.0026 44.2073 32 41.6647 32H36.3313C33.7887 32 31.9847 32.0026 30.6127 32.1866ZM38.9993 35.3333C39.2646 35.3333 39.5189 35.4387 39.7065 35.6262C39.894 35.8137 39.9993 36.0681 39.9993 36.3333V36.3466C41.4513 36.712 42.666 37.8573 42.666 39.444C42.666 39.7092 42.5607 39.9635 42.3731 40.1511C42.1856 40.3386 41.9312 40.444 41.666 40.444C41.4008 40.444 41.1464 40.3386 40.9589 40.1511C40.7714 39.9635 40.666 39.7092 40.666 39.444C40.666 38.932 40.098 38.2226 38.9993 38.2226C37.9007 38.2226 37.3327 38.932 37.3327 39.444C37.3327 39.956 37.9007 40.6666 38.9993 40.6666C40.846 40.6666 42.666 41.9466 42.666 43.8893C42.666 45.476 41.4513 46.62 39.9993 46.9866V47C39.9993 47.2652 39.894 47.5195 39.7065 47.7071C39.5189 47.8946 39.2646 48 38.9993 48C38.7341 48 38.4798 47.8946 38.2922 47.7071C38.1047 47.5195 37.9993 47.2652 37.9993 47V46.9866C36.5473 46.6213 35.3327 45.476 35.3327 43.8893C35.3327 43.6241 35.438 43.3697 35.6256 43.1822C35.8131 42.9946 36.0675 42.8893 36.3327 42.8893C36.5979 42.8893 36.8523 42.9946 37.0398 43.1822C37.2273 43.3697 37.3327 43.6241 37.3327 43.8893C37.3327 44.4013 37.9007 45.1106 38.9993 45.1106C40.098 45.1106 40.666 44.4013 40.666 43.8893C40.666 43.3773 40.098 42.6666 38.9993 42.6666C37.1527 42.6666 35.3327 41.3866 35.3327 39.444C35.3327 37.8573 36.5473 36.712 37.9993 36.3466V36.3333C37.9993 36.0681 38.1047 35.8137 38.2922 35.6262C38.4798 35.4387 38.7341 35.3333 38.9993 35.3333Z" fill="#208C0D"/>
</svg>
