<svg width="78" height="78" viewBox="0 0 78 78" fill="none" xmlns="http://www.w3.org/2000/svg">
<rect width="78" height="78" rx="39" fill="#E5FFE0"/>
<path d="M37.6667 52.3333C39.1394 52.3333 40.3333 51.1394 40.3333 49.6667C40.3333 48.1939 39.1394 47 37.6667 47C36.1939 47 35 48.1939 35 49.6667C35 51.1394 36.1939 52.3333 37.6667 52.3333Z" stroke="#208C0D" stroke-width="2.66667"/>
<path d="M40.3346 31C41.8074 31 43.0013 29.8061 43.0013 28.3333C43.0013 26.8605 41.8074 25.6666 40.3346 25.6666C38.8619 25.6666 37.668 26.8605 37.668 28.3333C37.668 29.8061 38.8619 31 40.3346 31Z" stroke="#208C0D" stroke-width="2.66667"/>
<path d="M47.0007 41.6666C48.4734 41.6666 49.6673 40.4727 49.6673 38.9999C49.6673 37.5272 48.4734 36.3333 47.0007 36.3333C45.5279 36.3333 44.334 37.5272 44.334 38.9999C44.334 40.4727 45.5279 41.6666 47.0007 41.6666Z" stroke="#208C0D" stroke-width="2.66667"/>
<path d="M31.0007 41.6666C32.4734 41.6666 33.6673 40.4727 33.6673 38.9999C33.6673 37.5272 32.4734 36.3333 31.0007 36.3333C29.5279 36.3333 28.334 37.5272 28.334 38.9999C28.334 40.4727 29.5279 41.6666 31.0007 41.6666Z" stroke="#208C0D" stroke-width="2.66667"/>
<path d="M44.3333 38.9999H33.6667M38.3333 30.3333L33 36.9999" stroke="#208C0D" stroke-width="2.66667" stroke-linecap="round" stroke-linejoin="round"/>
<path d="M45 41L39.666 47.6667" stroke="#208C0D" stroke-width="2.66667"/>
</svg>
