<svg width="78" height="78" viewBox="0 0 78 78" fill="none" xmlns="http://www.w3.org/2000/svg">
<rect width="78" height="78" rx="39" fill="#F4E4FF"/>
<path d="M47.5793 27.0867H30.4193C29.5352 27.0867 28.6874 27.4379 28.0622 28.063C27.4371 28.6881 27.0859 29.536 27.0859 30.42V42.2467C27.0859 43.1307 27.4371 43.9786 28.0622 44.6037C28.6874 45.2288 29.5352 45.58 30.4193 45.58H34.2993L33.8059 49.58H32.3326C32.1558 49.58 31.9862 49.6502 31.8612 49.7753C31.7362 49.9003 31.6659 50.0699 31.6659 50.2467C31.6659 50.4235 31.7362 50.5931 31.8612 50.7181C31.9862 50.8431 32.1558 50.9133 32.3326 50.9133H45.6793C45.8561 50.9133 46.0257 50.8431 46.1507 50.7181C46.2757 50.5931 46.3459 50.4235 46.3459 50.2467C46.3459 50.0699 46.2757 49.9003 46.1507 49.7753C46.0257 49.6502 45.8561 49.58 45.6793 49.58H44.1993L43.7059 45.58H47.5859C48.47 45.58 49.3178 45.2288 49.943 44.6037C50.5681 43.9786 50.9193 43.1307 50.9193 42.2467V30.42C50.9193 29.9817 50.8328 29.5477 50.6649 29.1429C50.497 28.738 50.2508 28.3702 49.9406 28.0606C49.6304 27.751 49.2621 27.5056 48.8569 27.3385C48.4517 27.1714 48.0176 27.0858 47.5793 27.0867ZM35.1393 49.58L35.6459 45.58H42.3526L42.8459 49.58H35.1393ZM49.5793 42.2467C49.5793 42.7771 49.3686 43.2858 48.9935 43.6609C48.6184 44.036 48.1097 44.2467 47.5793 44.2467H30.4193C29.8888 44.2467 29.3801 44.036 29.0051 43.6609C28.63 43.2858 28.4193 42.7771 28.4193 42.2467V41.58H49.5793V42.2467ZM49.5793 40.2467H28.4193V30.42C28.4193 29.8896 28.63 29.3809 29.0051 29.0058C29.3801 28.6307 29.8888 28.42 30.4193 28.42H47.5793C48.1097 28.42 48.6184 28.6307 48.9935 29.0058C49.3686 29.3809 49.5793 29.8896 49.5793 30.42V40.2467Z" fill="#6A0DAD"/>
</svg>
