<svg width="78" height="78" viewBox="0 0 78 78" fill="none" xmlns="http://www.w3.org/2000/svg">
<rect width="78" height="78" rx="39" fill="#F4E4FF"/>
<path fill-rule="evenodd" clip-rule="evenodd" d="M34.5555 24.6666C33.3994 24.6658 32.2731 25.0329 31.3397 25.7149C30.4063 26.3969 29.7142 27.3583 29.3637 28.4599C29.0132 29.5616 29.0224 30.7461 29.3901 31.8421C29.7578 32.9381 30.4648 33.8886 31.4088 34.556C30.6982 35.0588 30.1187 35.7249 29.719 36.4982C29.3192 37.2715 29.1109 38.1294 29.1115 39C29.1115 40.8346 30.0195 42.4586 31.4115 43.444C30.6489 43.9837 30.0381 44.7107 29.6378 45.5549C29.2375 46.3991 29.0612 47.3321 29.1258 48.2641C29.1905 49.1962 29.4939 50.0959 30.007 50.8767C30.52 51.6576 31.2253 52.2932 32.0551 52.7225C32.8849 53.1519 33.8113 53.3604 34.745 53.3281C35.6787 53.2958 36.5884 53.0238 37.3866 52.5381C38.1847 52.0525 38.8445 51.3696 39.3023 50.5552C39.7601 49.7408 40.0007 48.8222 40.0008 47.888V43.216C40.5672 43.6748 41.2199 44.0152 41.9203 44.2171C42.6207 44.4189 43.3545 44.478 44.0782 44.3909C44.8019 44.3038 45.5007 44.0723 46.1332 43.7101C46.7658 43.3478 47.3191 42.8623 47.7604 42.2821C48.2018 41.702 48.5221 41.0392 48.7025 40.333C48.8828 39.6267 48.9195 38.8914 48.8104 38.1707C48.7012 37.4501 48.4485 36.7586 48.0671 36.1375C47.6857 35.5163 47.1834 34.978 46.5901 34.5546C47.5341 33.8873 48.2411 32.9368 48.6088 31.8408C48.9765 30.7448 48.9857 29.5602 48.6352 28.4586C48.2847 27.357 47.5926 26.3956 46.6592 25.7136C45.7258 25.0316 44.5995 24.6644 43.4435 24.6653L34.5555 24.6666ZM37.9995 42.444H34.5555C34.1032 42.444 33.6553 42.3549 33.2375 42.1818C32.8197 42.0087 32.44 41.755 32.1202 41.4352C31.8004 41.1154 31.5467 40.7358 31.3736 40.3179C31.2005 39.9001 31.1115 39.4522 31.1115 39C31.1115 38.5477 31.2005 38.0998 31.3736 37.682C31.5467 37.2641 31.8004 36.8845 32.1202 36.5647C32.44 36.2449 32.8197 35.9912 33.2375 35.8181C33.6553 35.645 34.1032 35.556 34.5555 35.556H37.9995V42.444ZM34.5555 33.556H37.9995V26.6666H34.5555C33.6419 26.6666 32.7657 27.0295 32.1197 27.6755C31.4737 28.3215 31.1108 29.1977 31.1108 30.1113C31.1108 31.0249 31.4737 31.901 32.1197 32.547C32.7657 33.193 33.6419 33.556 34.5555 33.556ZM46.8888 30.1106C46.8891 31.0236 46.527 31.8993 45.882 32.5453C45.2369 33.1914 44.3617 33.5549 43.4488 33.556H39.9995V26.6666H43.4448C43.8971 26.6666 44.3449 26.7557 44.7628 26.9288C45.1806 27.1019 45.5603 27.3555 45.8801 27.6753C46.1999 27.9951 46.4536 28.3748 46.6266 28.7927C46.7997 29.2105 46.8888 29.6583 46.8888 30.1106ZM39.9995 38.996C40.0005 38.0839 40.3633 37.2096 41.0082 36.5647C41.6531 35.9198 42.5274 35.557 43.4395 35.556H43.4475C44.1283 35.5567 44.7936 35.7593 45.3593 36.138C45.9251 36.5168 46.3659 37.0547 46.6261 37.6838C46.8862 38.313 46.9541 39.0051 46.8211 39.6728C46.6881 40.3405 46.3601 40.9538 45.8787 41.4352C45.3973 41.9166 44.784 42.2446 44.1163 42.3776C43.4486 42.5106 42.7565 42.4427 42.1273 42.1826C41.4982 41.9224 40.9603 41.4816 40.5815 40.9158C40.2028 40.3501 40.0002 39.6848 39.9995 39.004V38.996ZM34.5555 44.444C33.8744 44.444 33.2085 44.6459 32.6422 45.0243C32.0759 45.4027 31.6345 45.9405 31.3737 46.5697C31.113 47.1989 31.0448 47.8913 31.1775 48.5594C31.3103 49.2274 31.6382 49.8411 32.1197 50.3228C32.6012 50.8045 33.2148 51.1326 33.8827 51.2656C34.5507 51.3987 35.2432 51.3306 35.8725 51.0702C36.5018 50.8097 37.0398 50.3685 37.4184 49.8023C37.797 49.2361 37.9992 48.5704 37.9995 47.8893V44.444H34.5555Z" fill="#6A0DAD"/>
</svg>
